<?xml version="1.0" encoding="UTF-8" standalone="no"?>
<!-- Created with Inkscape (http://www.inkscape.org/) -->

<svg
   width="30.691931mm"
   height="18.25625mm"
   viewBox="0 0 30.691931 18.25625"
   version="1.1"
   id="svg1"
   xmlns="http://www.w3.org/2000/svg"
   xmlns:svg="http://www.w3.org/2000/svg">
  <defs
     id="defs1" />
  <g
     id="layer1"
     transform="translate(-63.764583,-96.572917)">
    <path
       style="fill:#fff0eb"
       d="m 275.379,66.238 c 7.017,-4.786 14.228,-9.279 21.617,-13.468 0.42,-0.238 -0.009,-0.854 -0.427,-0.617 -7.389,4.189 -14.6,8.682 -21.617,13.468 -0.398,0.272 0.027,0.889 0.427,0.617 z"
       id="path32"
       transform="matrix(0.26458333,0,0,0.26458333,10.715625,86.915625)" />
    <path
       style="fill:#fff0eb"
       d="m 285.875,65.412 c 7.36,-4.239 14.892,-8.171 22.578,-11.787 0.436,-0.205 0.056,-0.852 -0.379,-0.648 -7.686,3.616 -15.217,7.548 -22.578,11.787 -0.417,0.241 -0.04,0.889 0.379,0.648 z"
       id="path34"
       transform="matrix(0.26458333,0,0,0.26458333,10.715625,86.915625)" />
    <g
       id="g37"
       transform="matrix(0.26458333,0,0,0.26458333,10.715625,86.915625)">
		<g
   id="g32">
			<path
   style="fill:none;stroke:#fff0eb;stroke-miterlimit:10"
   d="M 312.498,105 H 204.502 C 202.568,105 201,103.432 201,101.498 V 40.502 C 201,38.568 202.568,37 204.502,37 h 107.997 c 1.934,0 3.502,1.568 3.502,3.502 v 60.997 C 316,103.432 314.432,105 312.498,105 Z"
   id="path25" />

			
			<polygon
   style="fill:#fff0eb"
   points="210.996,99.266 210.487,98.405 256.109,71.458 301.201,98.406 300.688,99.265 256.105,72.621 "
   id="polygon25"
   transform="translate(-1.2598425e-6)" />
<path
   style="fill:#fff0eb"
   d="m 207.941,92.079 c -3.088,-12.761 -3.109,-26.128 -0.061,-38.899 0.112,-0.469 -0.611,-0.669 -0.723,-0.199 -3.08,12.901 -3.059,26.406 0.061,39.298 0.114,0.468 0.837,0.27 0.723,-0.2 z"
   id="path26"
   transform="translate(-1.2598425e-6)" />

			
			<path
   style="fill:#fff0eb"
   d="m 210.959,81.015 c -0.264,-4.309 0.157,-8.619 1.255,-12.794 0.123,-0.467 -0.6,-0.667 -0.723,-0.199 -1.114,4.236 -1.549,8.621 -1.282,12.993 0.029,0.479 0.779,0.483 0.75,0 z"
   id="path28"
   transform="translate(-1.2598425e-6)" />
<polygon
   style="fill:none;stroke:#fff0eb;stroke-miterlimit:10"
   points="312.498,37 204.502,37 255.844,70.23 "
   id="polygon30"
   transform="matrix(0.97720022,0,0,0.97720022,5.8959306,1.2234048)" />

			<path
   style="fill:#fff0eb"
   d="m 264.428,68.617 c -0.037,0.209 -0.086,0.422 -0.146,0.637 -0.116,0.415 -0.276,0.839 -0.477,1.271 -0.099,0.213 -0.211,0.431 -0.329,0.649 -0.802,1.452 -2.045,2.99 -3.662,4.521 -0.178,0.169 -0.361,0.336 -0.549,0.505 -0.973,0.876 -2.066,1.746 -3.266,2.592 0,0 0,0 0,0.002 l -0.104,0.063 -0.306,0.188 -0.347,-0.234 c -0.019,-0.014 -0.04,-0.028 -0.058,-0.042 -1.392,-0.984 -2.64,-2.001 -3.724,-3.02 -0.204,-0.192 -0.401,-0.384 -0.593,-0.576 -0.394,-0.392 -0.762,-0.785 -1.102,-1.177 -0.164,-0.188 -0.322,-0.373 -0.473,-0.56 -1.304,-1.605 -2.151,-3.166 -2.453,-4.576 -0.046,-0.213 -0.081,-0.424 -0.102,-0.63 -0.065,-0.669 0.002,-1.299 0.218,-1.874 0.072,-0.19 0.162,-0.384 0.273,-0.579 0.12,-0.22 0.266,-0.438 0.435,-0.644 0.581,-0.725 1.41,-1.329 2.381,-1.473 0.539,-0.079 1.105,-0.012 1.663,0.188 0.215,0.076 0.433,0.174 0.646,0.29 0.716,0.387 1.408,0.989 2.013,1.772 0.178,0.229 0.347,0.472 0.507,0.73 0.273,0.44 0.521,0.922 0.734,1.44 0.523,-1.274 1.246,-2.316 2.059,-3.069 0.176,-0.167 0.357,-0.317 0.54,-0.454 0.959,-0.711 2.001,-1.038 2.967,-0.896 1.491,0.22 2.659,1.54 3.089,2.696 0.039,0.107 0.074,0.213 0.104,0.322 0.06,0.222 0.1,0.452 0.12,0.686 0.037,0.398 0.016,0.817 -0.058,1.252 z"
   id="path30"
   transform="translate(-1.2598425e-6)" />

			<rect
   x="220"
   y="100"
   style="fill:#fff0eb"
   width="71"
   height="1"
   id="rect31" />

		</g>

		
		
	</g>
  </g>
</svg>
