<svg xmlns="http://www.w3.org/2000/svg" xmlns:xlink="http://www.w3.org/1999/xlink" width="2100" height="2100" viewBox="0 0 2100 2100">

<path fill-rule="nonzero" fill="#D686A8" fill-opacity="1" d="M 720.023438 375 C 611.910156 375 503.734375 416.390625 420.902344 499.171875 C 255.234375 664.761719 255.316406 931.371094 420.988281 1096.949219 C 629.328125 1316.753906 859.871094 1538.53125 1049.269531 1725 C 1240.140625 1542.097656 1419.101562 1358.4375 1679.058594 1098.609375 C 1844.71875 933.03125 1844.71875 666.339844 1679.058594 500.761719 C 1513.390625 335.171875 1246.640625 335.261719 1080.980469 500.761719 C 1070.761719 510.980469 1061.230469 521.519531 1052.269531 532.449219 L 1049.289062 529.480469 L 1047.691406 531.070312 C 1038.78125 520.109375 1029.191406 509.519531 1018.980469 499.300781 C 936.152344 416.511719 828.0625 375.121094 719.949219 375.121094 Z M 720.023438 375 "/>
</svg>
