<?xml version="1.0" encoding="UTF-8" standalone="no"?>
<!-- Created with Inkscape (http://www.inkscape.org/) -->

<svg
   width="157.00801mm"
   height="232.92792mm"
   viewBox="0 0 157.00801 232.92792"
   version="1.1"
   id="svg1"
   xmlns="http://www.w3.org/2000/svg"
   xmlns:svg="http://www.w3.org/2000/svg">
  <defs
     id="defs1" />
  <g
     id="layer1"
     transform="translate(-38.683122,-36.845581)">
    <path
       style="fill:#000000;stroke-width:0.264583"
       d="m 112.47925,269.6378 c -2.79836,-0.19088 -6.10346,-0.72368 -8.14436,-1.31292 -2.99885,-0.86583 -5.76598,-2.30192 -10.90564,-5.65984 -5.55335,-3.6282 -7.23727,-4.54051 -10.21964,-5.53683 -3.88482,-1.2978 -6.74693,-1.42004 -12.75494,-0.54475 -4.75654,0.69296 -8.25249,-0.54608 -13.8025,-4.89189 -4.12488,-3.2299 -5.77903,-4.04837 -8.60886,-4.25965 -2.55305,-0.19062 -4.18976,-0.67655 -5.71819,-1.69768 -3.79784,-2.53732 -4.79241,-8.92549 -2.18935,-14.06236 1.87455,-3.69925 6.45073,-6.59305 11.48141,-7.26039 0.72641,-0.0964 1.25504,-0.28152 1.17472,-0.41147 -0.0803,-0.12994 0.58973,-1.03764 1.48899,-2.0171 0.89925,-0.97946 2.39063,-2.92513 3.31418,-4.32371 1.63733,-2.47951 8.79587,-16.36303 12.39936,-24.04775 1.58965,-3.39006 7.29524,-16.31975 7.29524,-16.53208 0,-0.43469 6.31105,-14.13337 8.83938,-19.18667 4.96475,-9.92286 8.75241,-16.37246 14.22177,-24.21676 2.25358,-3.23215 3.05279,-4.14545 2.82127,-3.22403 -0.047,0.18726 -1.19292,1.8839 -2.54637,3.77032 -7.72627,10.76869 -14.23843,23.10624 -23.38717,44.30797 -5.31416,12.31528 -6.37207,14.60963 -11.38494,24.6913 -6.73394,13.54302 -7.63345,15.08906 -10.99569,18.8988 -1.92664,2.18307 -1.93591,2.17537 1.66196,1.38106 5.9674,-1.31743 11.4627,-3.75056 14.21859,-6.29551 0.39867,-0.36815 0.81539,-0.57686 0.92604,-0.46379 0.26608,0.27187 -1.54955,1.83629 -3.37067,2.90431 -3.84986,2.2578 -8.68651,3.85668 -15.23938,5.03779 -2.0515,0.36977 -4.2031,0.83924 -4.78135,1.04325 -5.67951,2.00385 -9.08344,6.45634 -9.08344,11.88153 0,5.59081 2.77024,8.68856 8.24822,9.22337 3.74142,0.36528 4.60692,0.75199 8.88126,3.96827 2.10877,1.58677 4.33582,3.17904 4.94899,3.53838 4.85195,2.84344 11.21515,2.46198 16.21456,-0.97204 1.69641,-1.16523 5.60972,-4.95486 7.47184,-7.23568 8.55981,-10.48453 16.18304,-27.76552 21.08921,-47.80679 0.52769,-2.15559 1.06273,-3.91925 1.18897,-3.91925 0.26158,0 0.26432,-0.0136 -1.1461,5.68854 -4.4312,17.91482 -11.46294,34.14444 -19.25711,44.44642 -3.48219,4.60259 -7.75538,8.70275 -10.69383,10.26081 l -1.09497,0.58059 2.64584,0.16665 c 5.07807,0.31985 8.47515,1.74766 16.2352,6.82374 6.57361,4.3 9.12129,5.42452 14.21796,6.2757 3.57128,0.59643 10.19712,0.60165 14.01867,0.011 5.81285,-0.89837 12.04373,-2.90503 16.73765,-5.39038 1.21407,-0.64284 2.27571,-1.10048 2.3592,-1.01699 0.20251,0.20251 0.21996,0.19042 -2.05306,1.42123 -3.89356,2.1083 -10.22212,4.29277 -15.06145,5.19885 -2.08501,0.39039 -8.76339,0.98926 -9.94168,0.8915 -0.29104,-0.0242 -1.06494,-0.0804 -1.71979,-0.12511 z m 31.12252,-6.43648 c -2.49172,-0.79595 -3.61734,-2.12385 -6.23193,-7.35184 -2.40129,-4.80147 -3.37594,-8.7051 -4.50729,-18.05261 -1.05443,-8.71191 -1.88905,-20.84868 -1.41351,-20.55478 0.14483,0.0895 0.3442,1.80416 0.44303,3.81033 0.61794,12.54344 2.50383,26.23976 4.25286,30.88651 1.19581,3.17698 3.55822,7.49836 5.09089,9.31239 1.7038,2.01657 6.80821,2.67006 11.92876,1.52715 2.90889,-0.64926 5.26641,-2.23693 6.896,-4.6441 l 0.88238,-1.3034 -0.80518,-1.25477 c -1.61047,-2.50969 -4.34024,-8.86059 -5.4794,-12.74798 -2.60782,-8.89925 -7.83627,-39.29195 -9.49085,-55.16989 -1.26736,-12.16203 -5.08815,-30.40168 -8.76591,-41.84663 -1.11479,-3.46915 -2.33086,-7.28525 -2.70239,-8.48023 l -0.6755,-2.17269 -1.01718,-0.407 c -0.55944,-0.22384 -1.18661,-0.40699 -1.39369,-0.40699 -0.20709,0 -0.55874,-0.26015 -0.78145,-0.57811 l -0.40492,-0.57812 -0.40383,0.96649 c -0.51473,1.23194 -0.50983,1.30429 0.12534,1.84814 0.29104,0.2492 0.52917,0.75353 0.52917,1.12073 0,0.3672 0.14219,0.89532 0.31598,1.17361 0.2334,0.37372 0.24059,0.67145 0.0275,1.13907 -0.15866,0.34821 -0.22945,0.94183 -0.15732,1.31915 0.10017,0.52398 -0.0254,0.78859 -0.5315,1.12021 -0.36446,0.2388 -0.73578,0.72557 -0.82517,1.08172 -0.0894,0.35614 -0.27931,0.64753 -0.42206,0.64753 -0.40887,0 -0.31085,0.73053 0.41919,3.12395 0.3733,1.22387 0.61801,2.38346 0.54379,2.57687 -0.18259,0.47581 -1.85206,0.91049 -3.50386,0.91228 -1.37607,0.002 -5.03876,-1.03897 -6.11267,-1.73644 l -0.58879,-0.3824 1.14929,-1.78411 c 1.21207,-1.88156 2.37207,-4.04017 2.22957,-4.1489 -0.0465,-0.0355 -0.65564,-0.21958 -1.35357,-0.40904 -1.56151,-0.42389 -3.86808,-1.7891 -5.38475,-3.18711 -0.62682,-0.57779 -1.31169,-1.05052 -1.52194,-1.05052 -0.21025,0 -0.50607,0.38695 -0.65738,0.8599 -1.48147,4.63045 -5.04322,16.5181 -6.03187,20.1319 -1.31578,4.80951 -1.32651,4.84144 -1.55186,4.61609 -0.31592,-0.31592 4.15158,-15.89533 7.28759,-25.41385 l 0.24118,-0.73201 -1.07111,-0.67615 c -0.5891,-0.37189 -1.11793,-0.62933 -1.17516,-0.5721 -0.22624,0.22624 -4.12582,8.52042 -6.00225,12.76643 -4.97699,11.262 -8.26228,20.11671 -11.53454,31.08854 -3.12357,10.4733 -6.26513,19.14411 -9.25072,25.53229 -7.93938,16.98768 -16.99896,26.99117 -27.88675,30.79224 -3.56363,1.24412 -9.4226,2.13898 -9.73539,1.48693 -0.0769,-0.16034 0.81785,-0.33114 2.27102,-0.43351 11.0399,-0.7777 21.32064,-8.38052 29.46706,-21.79149 5.47344,-9.01059 10.05403,-20.32392 15.21185,-37.57083 3.61728,-12.09562 8.84929,-25.28959 15.58053,-39.29063 1.08027,-2.24698 1.37538,-3.09191 1.12845,-3.23086 -0.18391,-0.10348 -0.95029,-0.60263 -1.70307,-1.10921 l -1.36869,-0.92106 -0.36746,0.58004 c -3.57268,5.63961 -10.46221,18.59993 -10.47023,19.69619 -0.001,0.18191 -0.12148,0.33073 -0.267,0.33073 -0.14552,0 -0.26459,-0.15108 -0.26459,-0.33573 0,-1.07547 5.67259,-11.94528 9.60939,-18.41351 l 1.34678,-2.21278 -0.78173,-0.56314 c -3.05318,-2.19948 -10.48477,-9.07628 -11.13138,-10.3004 -0.59774,-1.13163 -0.23327,-2.52497 3.70459,-14.16221 4.73404,-13.990171 5.55638,-16.352133 6.22761,-17.887222 0.41803,-0.956035 0.52653,-1.587489 0.40914,-2.38125 -0.21972,-1.485688 0.28431,-4.363667 1.07886,-6.160296 1.21246,-2.741591 4.10619,-5.691494 6.60829,-6.73657 0.57883,-0.241763 1.90395,-0.699428 2.94473,-1.017034 3.21241,-0.980305 5.30164,-2.626902 9.18955,-7.242609 3.86195,-4.584882 9.89728,-7.616785 14.36145,-7.214592 2.15252,0.193926 3.85906,1.030774 5.06156,2.482067 0.53929,0.650872 1.25553,1.438968 1.59164,1.751322 2.83218,2.632051 3.20901,3.095461 3.60704,4.435761 0.22664,0.763166 0.41207,2.139873 0.41207,3.059345 0,1.535168 0.25151,2.070481 0.66129,1.407451 0.0899,-0.145378 1.18182,-1.114981 2.42661,-2.154677 l 2.26324,-1.890355 -0.13472,-1.00443 c -0.0956,-0.712734 -0.39821,-1.235776 -1.04201,-1.801042 -0.80017,-0.702556 -1.4224,-1.77646 -1.89472,-3.270073 -0.0805,-0.254662 -0.38679,-0.463021 -0.68057,-0.463021 -0.60626,0 -1.26506,-0.956887 -2.76308,-4.013311 -0.82385,-1.680893 -0.94387,-2.123413 -0.69968,-2.579687 0.16211,-0.302914 0.4819,-0.550752 0.71063,-0.550752 0.22873,0 0.3567,-0.148828 0.28438,-0.330729 -0.0723,-0.181901 -0.62084,-1.539285 -1.21893,-3.016406 -0.59809,-1.477124 -1.08744,-2.931448 -1.08744,-3.231838 0,-0.300387 -0.24932,-0.679587 -0.55404,-0.842671 l -0.55404,-0.296511 0.50519,-0.572693 c 0.27786,-0.314981 0.71304,-0.907023 0.96707,-1.315651 l 0.46189,-0.742961 -0.67762,-0.533014 c -0.85965,-0.676195 -0.86151,-1.023776 -0.005,-1.023776 0.48362,0 1.21444,-0.54584 2.60573,-1.946187 3.04353,-3.06335 5.99865,-4.136721 9.95859,-3.617197 3.38031,0.443481 5.0499,1.080307 7.48752,2.855938 1.57067,1.144119 2.44713,2.4912 2.98378,4.585935 l 0.4105,1.602409 -0.41746,2.635774 c -0.51683,3.263167 -0.51984,3.143745 0.0793,3.143745 0.8989,0 1.17817,0.677558 1.01132,2.453746 -0.1891,2.012852 -0.77581,3.486382 -1.60432,4.029244 -0.512,0.335473 -0.66389,0.747765 -0.85483,2.320301 -0.28833,2.374667 -0.22623,5.826987 0.11626,6.462614 0.1413,0.262242 1.66685,1.265407 3.39011,2.229255 2.93026,1.63893 6.3695,3.118233 14.37801,6.18432 1.81901,0.696415 3.50695,1.457725 3.75097,1.691802 0.67202,0.644641 1.67151,8.313912 2.98633,22.915176 0.36692,4.07458 0.78563,8.65849 0.93046,10.18646 0.44596,4.70462 1.11956,20.96072 1.38687,33.46979 l 0.0735,3.43958 -0.84574,-0.002 -0.84574,-0.002 -0.15232,1.58921 c -0.0838,0.87406 -0.20527,3.48237 -0.26996,5.79623 l -0.11761,4.20702 -0.71204,1.08465 c -1.41698,2.15847 -3.02522,4.09662 -3.53306,4.25779 -0.82841,0.26293 -4.33644,0.59843 -4.7316,0.45252 -0.19809,-0.0731 -0.52083,-0.50212 -0.71726,-0.95329 l -0.35708,-0.8203 -0.0103,0.93056 c -0.006,0.51181 -0.12785,2.774 -0.27146,5.02709 -0.80248,12.59082 -1.11763,20.29291 -1.33144,32.53923 -0.13086,7.49432 -0.41878,16.84073 -0.63984,20.76979 -0.55623,9.88635 -0.53038,14.10697 0.11028,17.99167 0.81235,4.92572 0.67746,6.89574 -0.59066,8.62664 l -0.50487,0.68914 0.91228,1.42752 c 0.50178,0.78514 1.17081,2.02284 1.48675,2.75045 0.40621,0.93548 0.8233,1.44273 1.42414,1.73204 1.23156,0.59299 2.38437,2.903 2.22068,4.44975 -0.20241,1.91269 -0.85114,2.51299 -2.98636,2.76341 -1.00332,0.11768 -3.31253,0.17638 -5.13154,0.13045 -2.90726,-0.0734 -3.44045,-0.15958 -4.40825,-0.71249 -0.60555,-0.34594 -1.35302,-0.96987 -1.66105,-1.38651 -0.30803,-0.41664 -1.14991,-1.05642 -1.87082,-1.42174 -2.03077,-1.02907 -2.18149,-1.41061 -2.14987,-5.44241 0.0149,-1.90091 0.0931,-3.563 0.17379,-3.69353 0.0807,-0.13053 -0.0327,-0.86648 -0.25196,-1.63544 -0.90823,-3.1854 -1.00388,-4.85778 -0.44931,-7.85581 0.28515,-1.5415 0.59264,-3.35006 0.68332,-4.01902 0.14451,-1.06611 -0.37985,-17.62448 -0.7784,-24.58058 -0.0792,-1.38245 -0.32189,-6.79979 -0.5393,-12.03854 -0.59884,-14.42968 -0.90104,-21.20374 -1.18625,-26.59062 -0.14254,-2.69214 -0.27407,-6.02589 -0.2923,-7.40834 -0.0277,-2.10198 -0.0705,-2.34025 -0.26155,-1.45521 -0.38328,1.77586 -2.10842,29.6548 -2.35762,38.1 -0.12882,4.36563 -0.30296,9.30672 -0.38698,10.98021 -0.53563,10.66917 -0.98066,18.22823 -1.21499,20.6375 -0.34066,3.50242 -0.3385,3.39994 -0.12818,6.08542 l 0.17615,2.24896 -0.78238,1.29606 -0.78238,1.29607 0.52259,1.21747 c 0.79423,1.85031 1.80617,5.52842 1.80617,6.56488 0,0.67589 -0.20423,1.11337 -0.76378,1.63607 l -0.76379,0.71348 0.54651,0.75024 0.54651,0.75024 -0.6094,1.14873 c -1.35438,2.55303 -4.77604,4.91247 -8.16334,5.62909 -2.2683,0.47988 -7.32576,0.35377 -9.14728,-0.22809 z m 41.13903,-1.42705 c 0.23495,-0.1067 0.56238,-0.49072 0.72761,-0.85336 0.75972,-1.66739 -0.0746,-4.21792 -1.69201,-5.17218 -0.65413,-0.38594 -1.24278,-1.17112 -2.11942,-2.82696 -0.66754,-1.26093 -1.42269,-2.54709 -1.67807,-2.85812 -0.63021,-0.76752 -2.23961,-1.55568 -4.2296,-2.07134 l -1.65341,-0.42844 -1.62044,0.41514 c -0.89122,0.22832 -2.1046,0.68176 -2.69634,1.00763 l -1.07591,0.59251 -0.18574,2.37709 c -0.19245,2.46307 -0.0428,4.9741 0.34064,5.7134 0.12147,0.23425 0.81566,0.68178 1.54265,0.99452 0.75075,0.32297 1.61973,0.95926 2.01149,1.47288 0.37934,0.49734 1.18827,1.15727 1.79764,1.4665 l 1.10791,0.56225 4.49792,-0.0988 c 2.47385,-0.0543 4.69013,-0.18606 4.92508,-0.29276 z m -23.90167,-7.72052 c 0.88013,-0.61647 0.75718,-2.13612 -0.45599,-5.63602 -0.57293,-1.65285 -1.09047,-3.05396 -1.15009,-3.11359 -0.0596,-0.0596 -0.45354,0.0716 -0.87537,0.29158 -0.42183,0.21999 -1.03486,0.40071 -1.36228,0.40161 -0.32742,7.9e-4 -0.59531,0.11628 -0.59531,0.25641 0,0.69419 3.37368,8.21188 3.68521,8.21188 0.0912,0 0.43041,-0.18534 0.75383,-0.41187 z m 9.37753,-5.80597 c 2.85742,-1.30816 5.08998,-1.30315 8.07768,0.0182 0.8002,0.35389 1.49463,0.64344 1.54313,0.64344 0.0485,0 0.39089,-0.51648 0.76083,-1.14773 0.84818,-1.44729 0.88302,-3.46299 0.13804,-7.9804 -0.63863,-3.87229 -0.66411,-7.77252 -0.11237,-17.19792 0.22145,-3.78354 0.51149,-13.07041 0.64447,-20.6375 0.21788,-12.39663 1.06929,-31.03818 1.84288,-40.34895 0.37941,-4.56658 0.63822,-10.31875 0.46426,-10.31875 -0.0845,0 -0.48871,0.12744 -0.89837,0.28321 -1.51947,0.57775 -5.80572,1.56412 -6.80701,1.56646 -2.43123,0.006 -4.9951,-2.69348 -6.33758,-6.67194 -0.44776,-1.32694 -1.95739,-8.44348 -2.68137,-12.64023 -0.23849,-1.38245 -0.55635,-3.08865 -0.70637,-3.79156 l -0.27276,-1.27801 -0.6045,0.5679 -0.60451,0.5679 -0.61069,-0.85764 -0.6107,-0.85765 -0.59099,1.93542 c -0.32504,1.06447 -0.66464,2.22889 -0.75467,2.58758 l -0.16368,0.65217 2.26097,-0.0938 c 1.70901,-0.0709 2.26097,-0.0111 2.26094,0.24472 -3e-5,0.25198 -0.56335,0.32537 -2.20366,0.2871 -2.2803,-0.0532 -2.82346,0.0793 -2.82346,0.68897 0,0.7618 -2.71199,5.67566 -4.33113,7.84758 -2.53617,3.40205 -5.3025,5.25535 -6.71557,4.4991 -0.7429,-0.3976 -3.62195,-3.71102 -3.40929,-3.92368 0.0945,-0.0945 0.6175,0.35463 1.1623,0.99798 1.51374,1.78751 2.50809,2.6259 3.1144,2.6259 2.04386,0 6.28285,-4.78946 8.66445,-9.78959 1.61232,-3.38505 3.11291,-8.66856 3.77604,-13.29531 0.0991,-0.69122 0.28568,-1.25677 0.41467,-1.25677 0.30639,0 0.3046,0.0281 -0.18209,2.86135 l -0.41663,2.42543 0.5839,0.82001 0.5839,0.82002 0.54159,-0.54159 0.54158,-0.54158 -0.46724,-2.98797 c -0.25698,-1.64338 -0.5916,-3.91253 -0.7436,-5.04257 l -0.27635,-2.05461 1.00351,-1.51726 c 0.55193,-0.8345 1.71413,-2.45329 2.58265,-3.59731 2.36145,-3.11051 3.37414,-4.92332 5.18752,-9.28601 2.26007,-5.437427 5.93301,-16.436881 5.74233,-17.196653 -0.0828,-0.329848 -0.56933,-0.884269 -1.08122,-1.232051 -1.55395,-1.055785 -1.49852,-1.598446 0.3746,-3.667326 1.45975,-1.612318 1.3816,-2.332633 -0.58473,-5.389594 -2.49164,-3.873593 -3.81627,-5.374338 -5.6178,-6.364581 -0.95411,-0.524444 -1.77524,-0.953537 -1.82475,-0.953537 -0.0495,0 0.15156,0.488188 0.44675,1.084863 l 0.53676,1.084863 0.11938,7.712532 c 0.17029,11.001666 -0.63669,17.815928 -3.07536,25.968784 -0.56586,1.89177 -1.47989,5.31482 -2.03117,7.60677 -0.55129,2.29195 -1.0899,4.16719 -1.19691,4.16719 -0.10701,0 -0.61186,-0.98227 -1.12189,-2.18282 -0.51003,-1.20054 -1.60442,-3.73062 -2.43198,-5.62239 -4.15972,-9.508914 -5.98497,-16.821241 -6.73642,-26.987501 -0.38905,-5.26343 -0.34528,-8.651906 0.13575,-10.508265 0.22644,-0.873848 0.36674,-1.633779 0.31178,-1.688735 -0.1329,-0.132903 -1.32667,0.769876 -3.31135,2.504186 -1.06876,0.933926 -1.72971,1.748692 -1.93172,2.38125 -0.42376,1.326906 -1.21917,2.639758 -2.27924,3.76197 l -0.89581,0.948325 1.16104,1.565216 c 0.63857,0.860873 1.41541,1.790264 1.72631,2.065317 l 0.56526,0.500094 -1.60385,1.714526 c -1.37071,1.465292 -1.57851,1.815669 -1.4295,2.41032 0.23056,0.920147 5.15088,10.704997 7.69716,15.307057 1.95945,3.54144 4.0913,6.63121 7.67155,11.11867 0.95749,1.2001 1.69573,2.31747 1.64054,2.48303 -0.11006,0.3302 -5.05893,-5.8532 -7.09267,-8.86198 -1.44042,-2.131 -5.30372,-9.283514 -8.49405,-15.725861 -1.55544,-3.140962 -2.09281,-4.482634 -1.97823,-4.939147 0.0865,-0.34472 0.74903,-1.274212 1.47226,-2.06553 l 1.31495,-1.438767 -0.65814,-0.618284 c -0.36197,-0.340056 -1.02545,-1.190699 -1.47439,-1.890318 -0.44895,-0.699617 -0.86876,-1.272032 -0.93292,-1.272032 -0.3635,0 -4.16326,2.789359 -5.16677,3.792863 -1.53092,1.530919 -2.95798,4.288702 -3.51384,6.79047 -1.13521,5.109221 -1.84099,7.916738 -2.30696,9.176795 l -0.50722,1.371591 0.44069,1.51592 c 0.68961,2.37218 0.20814,4.98938 -1.21211,6.58882 -0.46663,0.5255 -0.88278,2.6234 -1.16778,5.88698 -0.11551,1.32272 -0.0689,1.65364 0.23279,1.65364 0.20746,0 0.45079,-0.11906 0.54073,-0.26458 0.22537,-0.36466 1.11718,-0.33289 1.3527,0.0482 0.10632,0.17203 0.22844,0.61851 0.27137,0.99219 0.28838,2.51017 0.48014,2.7995 1.79657,2.71084 0.71346,-0.0481 0.94177,0.0552 1.0791,0.48786 0.0972,0.30615 0.0277,0.72534 -0.15716,0.94805 -0.29086,0.35047 -0.166,0.37732 1.02198,0.21972 0.74433,-0.0987 1.80634,-0.0897 2.36001,0.0201 l 1.00668,0.19965 -1.32292,0.31253 c -1.65615,0.39125 -2.42033,0.80063 -2.79244,1.49591 -0.42745,0.79871 -0.11725,1.29617 0.80826,1.29617 0.85423,0 2.82052,0.70706 2.5946,0.93299 -0.0728,0.0728 -0.56347,-0.0479 -1.09046,-0.26805 -1.40769,-0.58817 -2.29808,-0.52925 -2.29808,0.15207 0,0.49047 0.11126,0.53444 0.99218,0.39208 1.48384,-0.23978 3.34918,0.15777 3.46084,0.7376 l 0.092,0.47762 -0.61885,-0.38871 c -0.62205,-0.3907 -2.60324,-0.85101 -2.60324,-0.60483 0,0.0725 0.13573,0.42973 0.30162,0.79382 0.60574,1.32946 -0.56851,2.82477 -1.88912,2.40562 -0.81465,-0.25856 -0.66779,0.57897 0.23467,1.33835 0.61947,0.52124 1.882,2.63157 1.882,3.14576 0,0.0683 -0.58267,-0.23796 -1.29482,-0.68066 -1.57053,-0.9763 -2.32945,-0.91705 -3.10909,0.24272 l -0.58563,0.87116 0.37987,0.71634 c 0.20892,0.39398 0.69098,1.43071 1.07123,2.30383 2.32495,5.33844 4.88428,10.18646 5.37758,10.18646 0.11733,0 0.36184,-0.35854 0.54335,-0.79675 0.18152,-0.43822 1.15323,-1.65861 2.15936,-2.71198 l 1.82933,-1.91523 -0.40746,-3.23488 c -0.46729,-3.70976 -0.5025,-4.51725 -0.18143,-4.16022 0.12431,0.13824 0.43523,1.93332 0.69092,3.98905 l 0.46489,3.73771 -1.2269,1.13091 c -0.6748,0.62201 -1.65142,1.70923 -2.17028,2.41606 l -0.94338,1.28513 0.75175,0.90475 c 0.41346,0.49761 0.81277,0.91334 0.88735,0.92385 0.0746,0.0105 0.35343,-0.74153 0.61967,-1.67118 0.52345,-1.82779 1.70342,-4.48393 1.7374,-3.91094 0.0115,0.19355 -0.33631,1.3639 -0.77288,2.60077 -0.47523,1.34643 -0.79375,2.77838 -0.79375,3.56843 0,0.72576 0.71049,7.05635 1.57887,14.06798 2.51858,20.33597 2.43407,19.22704 2.57951,33.84894 0.0837,8.41071 0.0383,13.16302 -0.12552,13.16302 -0.15978,0 -0.17526,0.47373 -0.0411,1.25677 3.48481,20.33348 4.99946,27.71103 6.66782,32.4776 0.27819,0.79478 0.53037,1.07773 1.0127,1.13622 1.18881,0.14418 2.50661,-0.63988 3.27275,-1.9472 l 0.71864,-1.22627 -0.18633,-2.60335 c -0.10835,-1.51383 -0.0629,-3.74504 0.10867,-5.33137 0.4158,-3.84524 1.01806,-14.99943 1.34733,-24.95303 0.50519,-15.27219 2.71662,-51.0431 3.1875,-51.55952 0.32818,-0.35993 0.4601,1.37602 0.90219,11.87202 0.22678,5.38427 0.7709,17.88583 1.20916,27.78125 1.71073,38.62665 1.72139,39.33725 0.65178,43.44374 -0.59014,2.26572 -0.56224,2.65151 0.53685,7.42241 0.0754,0.32742 0.18002,0.59531 0.23242,0.59531 0.0524,0 0.74557,-0.29772 1.54038,-0.66159 z m -9.98012,-110.46341 c 0.0954,-0.15433 1.59025,-0.26458 3.58749,-0.26458 2.10626,0 3.42397,0.10183 3.42397,0.26458 0,0.16338 -1.37222,0.26459 -3.58749,0.26459 -2.32428,0 -3.52991,-0.0932 -3.42397,-0.26459 z m -14.82411,-7.34218 c 0.53767,-5.01751 0.67668,-7.27069 0.68964,-11.17865 l 0.0145,-4.36562 -1.22772,-6.35 c -3.22478,-16.679112 -3.76711,-19.58697 -3.67216,-19.689414 0.0562,-0.06063 0.16908,-0.04334 0.25085,0.03844 0.15013,0.150127 2.85107,13.752234 4.36913,22.003254 l 0.82223,4.46894 -0.0903,4.97444 -0.0903,4.97443 1.5875,0.26493 c 0.87312,0.14571 2.92695,0.4734 4.56406,0.72821 1.63711,0.25481 2.97656,0.56472 2.97656,0.68868 0,0.41258 -1.38206,4.56313 -1.59717,4.79659 -0.11805,0.12811 -1.86229,-0.13526 -3.94271,-0.59532 -2.05205,-0.45378 -3.84771,-0.82506 -3.99035,-0.82506 -0.14264,0 -0.25935,0.35719 -0.25935,0.79375 0,0.43656 -0.12766,0.79375 -0.28368,0.79375 -0.18785,0 -0.22861,-0.51388 -0.12065,-1.52135 z m 9.01804,-1.11339 c 0.34363,-1.08531 0.58062,-2.01745 0.52664,-2.07143 -0.0834,-0.0834 -7.90504,-1.36834 -8.37857,-1.37644 -0.21133,-0.004 -0.58158,3.70518 -0.3891,3.89766 0.19771,0.19771 6.81361,1.62862 7.2598,1.57018 0.19604,-0.0257 0.6376,-0.93467 0.98123,-2.01997 z m -5.67981,69.42475 c 0.0387,-11.45073 -0.18092,-14.935 -1.75822,-27.89626 -0.64638,-5.31151 -1.48264,-12.21713 -1.85837,-15.34583 l -0.68313,-5.68854 -0.95888,-0.99279 c -0.64588,-0.66873 -1.11168,-0.94429 -1.42701,-0.84421 -0.35314,0.11208 -0.70853,-0.22723 -1.44681,-1.38134 -0.96761,-1.51262 -4.58547,-8.78862 -4.59708,-9.24535 -0.003,-0.12998 -0.38266,-0.42188 -0.84301,-0.64868 -0.87943,-0.43327 -1.43561,-1.26544 -0.64229,-0.96101 0.51127,0.19619 0.52309,0.14085 0.14652,-0.68563 -0.37897,-0.83174 -1.97288,-1.58169 -2.36289,-1.11176 -0.20709,0.24952 -0.0259,0.46427 0.72352,0.85761 0.66192,0.34741 0.97169,0.67839 0.91664,0.97943 -0.0457,0.25009 1.00035,3.83569 2.32463,7.96801 2.53648,7.91497 3.54637,11.68704 5.27206,19.69176 1.96295,9.10527 3.45753,18.18244 4.39999,26.72291 0.37177,3.36886 1.29022,10.06128 2.26176,16.48071 0.17155,1.13349 0.35413,2.01868 0.40573,1.96709 0.0516,-0.0516 0.10868,-4.49136 0.12684,-9.86612 z m 39.55152,-34.92418 c 0.46423,-0.0699 1.14585,-0.48389 1.5875,-0.96425 l 0.77396,-0.84184 -0.86117,0.69682 c -0.53229,0.43071 -1.34062,0.7592 -2.11667,0.86019 -0.69053,0.0899 -1.67222,0.26735 -2.18154,0.39442 -0.7616,0.19001 -0.66765,0.20849 0.52917,0.10406 0.80036,-0.0698 1.82128,-0.18207 2.26875,-0.2494 z m -1.24397,-0.63483 c 2.01742,-0.29165 2.66332,-0.80988 3.80508,-3.05287 0.44445,-0.87313 0.85601,-1.4481 0.91458,-1.27771 0.0586,0.17038 -0.21071,0.94429 -0.59843,1.71979 -0.79214,1.58437 -0.64889,1.49288 0.77303,-0.49368 l 0.98383,-1.37451 0.11578,-2.19736 c 0.0637,-1.20855 0.17219,-3.83448 0.24109,-5.83539 l 0.12528,-3.63802 h -2.89875 -2.89877 v 1.48915 c 0,1.16992 -0.17016,1.78654 -0.79375,2.87647 -0.91456,1.59849 -2.11667,6.03665 -2.11667,7.81472 0,1.51142 0.54769,2.3707 1.24127,1.94743 0.37129,-0.22658 0.51162,-0.75343 0.62627,-2.351 0.12401,-1.72799 0.24569,-2.13828 0.75692,-2.55225 0.78861,-0.63858 0.98356,-0.62169 1.17752,0.10204 0.5537,2.06614 -0.31758,5.36976 -1.47394,5.58868 -2.27885,0.43143 -2.72536,0.59457 -2.80765,1.02591 -0.1034,0.54177 0.31115,0.57235 2.82731,0.2086 z m -2.40652,-1.33308 c 0.20209,0 0.17442,-0.29196 -0.087,-0.91755 -0.21085,-0.50464 -0.38336,-1.35311 -0.38336,-1.88547 0,-1.69932 1.08167,-5.74235 1.9812,-7.40535 0.88977,-1.6449 1.35406,-4.32973 0.79693,-4.6083 -0.15235,-0.0762 -0.29419,0.37286 -0.33438,1.05833 -0.11523,1.96629 -0.24897,2.24671 -1.2432,2.60622 -0.59407,0.21482 -0.97904,0.54853 -1.05704,0.91634 -0.0675,0.31817 -0.25458,2.72161 -0.41576,5.34099 -0.16116,2.61937 -0.36026,5.00062 -0.44244,5.29166 l -0.14938,0.52917 0.519,-0.46302 c 0.28546,-0.25466 0.65239,-0.46302 0.81542,-0.46302 z m 2.29598,-0.42897 c 0.23561,-0.0904 0.60253,-0.5812 0.81539,-1.09064 0.43241,-1.03488 0.528,-3.77206 0.13174,-3.77206 -0.45027,0 -0.73001,0.87984 -0.87278,2.74534 -0.085,1.11016 -0.27901,1.90784 -0.49779,2.04647 -0.42087,0.26668 -0.18828,0.30563 0.42344,0.0709 z m -8.32258,-9.23866 c 0.94589,-0.21966 3.01668,-0.82871 4.60177,-1.35345 l 2.882,-0.95406 -0.15272,-5.72024 c -0.14435,-5.40709 -0.68675,-11.06762 -1.99906,-20.86266 l -0.50445,-3.76533 0.35372,-5.3628 c 1.2079,-18.313107 1.82361,-24.116957 3.53028,-33.276332 0.42029,-2.255573 0.68593,-4.184105 0.59037,-4.285628 -0.0956,-0.101526 -1.72159,-0.7718 -3.61336,-1.489501 -1.89178,-0.717701 -4.78026,-1.84563 -6.41888,-2.506509 -1.63859,-0.660879 -2.90007,-1.073465 -2.80328,-0.916861 0.0968,0.156605 0.82664,1.189004 1.62187,2.294221 1.95426,2.715993 3.09372,5.052729 2.87967,5.90555 -0.0917,0.365369 -0.70419,1.317154 -1.3611,2.115074 -0.65688,0.79792 -1.19433,1.565148 -1.19433,1.704951 0,0.139803 0.3564,0.517681 0.79198,0.83973 0.43558,0.322048 0.9838,0.878279 1.21822,1.236069 l 0.42625,0.650531 -0.94552,3.136525 c -0.52004,1.725088 -1.02203,3.335842 -1.11551,3.579452 l -0.16997,0.442926 2.67539,-0.175329 2.67541,-0.175329 v 1.080276 c 0,1.249756 0.19095,1.154887 -3.63209,1.8045 l -2.70605,0.459812 -0.70573,1.873207 c -3.35256,8.898985 -4.09696,10.381995 -7.50472,14.950995 -3.08262,4.13306 -3.27847,4.5303 -3.06301,6.21265 0.58006,4.52918 3.03591,18.17534 4.36122,24.23352 0.60304,2.75652 1.65182,5.13041 2.96542,6.71202 1.70373,2.05133 2.99995,2.38215 6.31621,1.61202 z m -1.81911,-21.07242 c -0.39436,-1.04214 -0.91964,-3.65107 -0.766,-3.8047 0.23585,-0.23585 7.14497,-1.72941 7.29697,-1.5774 0.25641,0.25639 -0.0744,0.36246 -3.39198,1.08754 -1.81735,0.3972 -3.34185,0.75092 -3.38781,0.78606 -0.0459,0.0351 0.0314,0.52239 0.17193,1.08278 0.14049,0.56039 0.32607,1.33402 0.41243,1.71918 l 0.15701,0.70028 2.44922,-0.62883 c 2.61524,-0.67147 3.37463,-0.77859 2.96516,-0.41828 -0.13825,0.12165 -1.26339,0.48581 -2.50032,0.80925 -1.23692,0.32344 -2.45723,0.64862 -2.71179,0.72263 -0.31295,0.091 -0.53792,-0.0639 -0.69482,-0.47851 z m -51.79671,17.20749 c 0.29609,-2.83285 0.21294,-5.25286 -0.18048,-5.25286 -0.23831,0 -0.53493,0.99489 -0.92687,3.10885 -0.31702,1.70987 -0.57603,3.18987 -0.57557,3.28889 5.3e-4,0.099 0.26871,0.23164 0.59613,0.2947 0.32742,0.0631 0.66765,0.13088 0.75606,0.1507 0.0884,0.0198 0.23724,-0.69581 0.33073,-1.59028 z m 2.12815,0.96485 c -0.0523,-1.05599 -0.66257,-5.53947 -0.76839,-5.6453 -0.0597,-0.0597 -0.29235,-0.0381 -0.51691,0.0481 -0.33551,0.12875 -0.40828,0.70351 -0.40828,3.22445 v 3.06778 l 0.85989,-0.0829 c 0.6669,-0.0643 0.85401,-0.20168 0.83369,-0.61208 z m 1.31812,0.0554 c 0.37693,-0.27562 0.41421,-0.467 0.19327,-0.99219 -0.15056,-0.35788 -0.5216,-1.5139 -0.82452,-2.56893 -0.30293,-1.05503 -0.67426,-1.91823 -0.82518,-1.91823 -0.15794,0 -0.21316,0.30882 -0.13011,0.7276 0.0794,0.40019 0.28111,1.70987 0.44833,2.91042 0.16723,1.20055 0.38666,2.18281 0.48762,2.18281 0.10097,0 0.39373,-0.15366 0.65059,-0.34148 z m -5.03304,-2.50279 c 0.26209,-1.41882 0.54133,-2.90711 0.62054,-3.30729 0.0825,-0.41684 0.0274,-0.7276 -0.12909,-0.7276 -0.15021,0 -0.70977,1.38646 -1.24347,3.08101 -0.77552,2.46237 -0.89998,3.12564 -0.61986,3.30325 0.7308,0.46333 0.90856,0.15891 1.37188,-2.34937 z m -1.07551,-1.02672 c 0.55231,-1.6898 0.95013,-3.12641 0.88405,-3.19249 -0.0661,-0.0661 -0.20589,0.15672 -0.3107,0.49511 -0.1048,0.33839 -0.69994,1.71034 -1.32253,3.04878 -1.04302,2.24228 -1.09484,2.60389 -0.38731,2.70251 0.0728,0.0101 0.58418,-1.36412 1.13649,-3.05391 z m -0.98613,0.0389 c 1.5097,-3.23069 1.501,-3.74285 -0.0183,-1.07683 -0.65497,1.14933 -1.39438,2.31457 -1.64312,2.58944 -0.39018,0.43114 -0.39923,0.5333 -0.0659,0.74413 0.2125,0.1344 0.42425,0.2462 0.47056,0.24843 0.0463,0.002 0.61186,-1.1251 1.25678,-2.50517 z m 73.82683,-1.92255 c -0.0829,-1.56435 -0.21677,-5.34459 -0.29749,-8.40052 -0.38452,-14.55743 -0.84789,-22.88448 -1.84029,-33.07292 -1.18044,-12.118658 -1.53019,-15.483319 -2.01787,-19.412035 -0.6015,-4.845431 -0.75814,-5.427038 -1.58001,-5.866902 -0.80063,-0.428485 -0.8821,-0.235175 -1.68312,3.99488 -1.52233,8.038891 -2.17194,14.179015 -3.44583,32.569667 l -0.39687,5.72936 0.5144,3.66335 c 0.95303,6.78704 1.86939,15.54323 2.03708,19.465 l 0.16658,3.8954 3.59717,0.0815 c 1.97845,0.0448 3.93464,0.10757 4.34708,0.13949 l 0.74991,0.058 z m -67.14635,-1.19643 c 0.0891,-0.46753 -0.0653,-0.55841 -3.25896,-1.91786 -0.58209,-0.24778 -0.91097,-0.50618 -0.73086,-0.57423 0.18011,-0.068 1.28292,0.26693 2.45069,0.74439 l 2.12323,0.86811 0.45523,-0.45524 c 0.71208,-0.71207 0.19041,-1.18143 -2.39241,-2.15254 -1.28009,-0.4813 -2.40127,-0.94891 -2.49149,-1.03914 -0.48084,-0.48084 0.34016,-0.31375 2.55604,0.52018 1.62371,0.61107 2.56296,0.84134 2.73403,0.67027 0.52429,-0.52428 -0.0758,-1.03071 -2.23374,-1.88505 -1.21338,-0.48038 -2.31726,-0.97226 -2.45308,-1.09307 -0.56951,-0.50654 0.0967,-0.39255 1.83444,0.31387 2.28523,0.92898 2.57451,0.95072 2.4658,0.18528 -0.0626,-0.44081 -0.56521,-0.83255 -1.93663,-1.50944 -2.02272,-0.99834 -2.4915,-1.04866 -6.49887,-0.69754 l -2.53011,0.22168 -2.76155,-2.32624 c -5.50464,-4.63692 -10.10115,-9.07334 -12.8686,-12.42039 l -1.31015,-1.58452 1.56988,-3.83943 c 0.86343,-2.11169 1.78374,-4.37522 2.04513,-5.03006 1.10433,-2.7666 5.88465,-13.07698 6.24604,-13.471701 0.0555,-0.06063 0.16847,-0.04271 0.25102,0.03984 0.0825,0.08254 -0.15558,0.753274 -0.52917,1.490509 -0.37359,0.737238 -0.67925,1.397077 -0.67925,1.466308 0,0.06923 0.62508,-0.288679 1.38907,-0.795361 4.19017,-2.778969 7.16312,-3.420007 9.82382,-2.118252 0.78041,0.381823 1.96212,1.172356 2.62602,1.756746 l 1.20709,1.062525 1.20561,-0.849795 c 2.24007,-1.578948 5.17156,-1.270568 7.35346,0.773552 l 0.71861,0.673232 0.3149,-0.768487 c 0.17319,-0.422667 0.36809,-1.551271 0.4331,-2.508009 0.10485,-1.542852 0.0478,-1.819654 -0.50434,-2.448298 -0.60481,-0.688586 -2.89856,-1.376159 -3.72886,-1.117764 -0.91843,0.285824 -4.43431,0.410498 -4.43431,0.157242 0,-0.151588 0.56555,-0.283986 1.25677,-0.294212 0.69122,-0.01024 1.47257,-0.103693 1.73632,-0.207698 0.40265,-0.158779 0.32811,-0.261316 -0.46483,-0.639445 -2.02413,-0.965237 -2.44449,-2.930175 -1.0709,-5.005805 l 0.68484,-1.03487 -0.6439,-1.375439 c -0.56923,-1.215912 -1.23372,-3.631068 -1.23372,-4.484087 0,-0.709113 0.49143,0.287784 0.74986,1.521148 0.41847,1.997172 0.99115,3.166787 1.94249,3.967284 0.74861,0.629922 1.01908,0.704437 2.09457,0.577061 1.49331,-0.176861 6.04728,-1.848477 7.45258,-2.735609 0.60885,-0.384347 1.50478,-1.403744 2.23909,-2.547646 0.67327,-1.048809 1.79867,-2.541596 2.50089,-3.317309 l 1.27677,-1.410383 0.003,-1.500034 c 0.002,-0.825015 -0.19751,-2.359056 -0.44306,-3.408973 l -0.44646,-1.908945 -1.13753,-0.170582 c -0.62564,-0.09382 -2.89681,-0.127167 -5.04704,-0.0741 l -3.90951,0.09649 -1.45521,0.713986 c -2.34486,1.150488 -3.49163,2.54708 -4.9734,6.056834 -0.71271,1.688123 -1.73486,3.730749 -2.27146,4.539168 -1.26298,1.902764 -4.49792,4.969382 -6.0188,5.705625 -1.62126,0.784842 -5.09432,0.798343 -7.83095,0.03044 -3.16868,-0.889132 -4.28904,-0.207809 -6.11898,3.721143 -1.10274,2.367631 -9.59964,27.219151 -10.09309,29.520001 -0.18376,0.85683 -0.19872,1.57245 -0.0415,1.9836 0.72658,1.89982 10.18185,9.98437 16.08694,13.75484 2.30757,1.47341 4.6123,3.06639 5.12163,3.53994 1.3305,1.23708 2.69052,1.98814 4.85174,2.67937 1.04232,0.33336 2.72857,0.91231 3.74722,1.28654 2.06111,0.75721 2.86126,0.77868 2.99437,0.0803 z m -6.03709,-51.45618 c -1.25088,-0.398602 -5.82679,-2.311826 -7.22575,-3.021139 -2.52595,-1.28074 -1.39107,-1.170355 1.42097,0.13821 1.37362,0.639207 3.2714,1.434785 4.21728,1.767954 1.6885,0.594738 2.32656,0.941565 2.09903,1.140963 -0.0631,0.05526 -0.29325,0.04357 -0.51153,-0.02598 z m 13.49375,45.04579 c 0,-0.0728 -0.0595,-0.1323 -0.13229,-0.1323 -0.0728,0 -0.13229,0.0595 -0.13229,0.1323 0,0.0728 0.0595,0.13229 0.13229,0.13229 0.0728,0 0.13229,-0.0595 0.13229,-0.13229 z m -6.86749,-2.18282 c 0.21041,-0.5457 0.42284,-1.08148 0.47207,-1.19062 0.0492,-0.10914 -0.03,-0.19844 -0.17609,-0.19844 -0.14609,0 -0.34376,0.35582 -0.43928,0.79072 -0.0955,0.43489 -0.28357,0.85864 -0.4179,0.94165 -0.29969,0.18523 -0.32313,0.64888 -0.0328,0.64888 0.11628,0 0.38358,-0.44648 0.59399,-0.99219 z m -9.73152,-0.13229 c 0.99674,-0.5571 2.84068,-2.07138 2.84068,-2.33282 0,-0.13578 -0.19133,-0.24687 -0.42518,-0.24687 -0.2673,0 -0.36921,0.14588 -0.27444,0.39284 0.0866,0.22575 -0.0546,0.50274 -0.33202,0.65121 -0.69507,0.37199 -1.30316,-0.19197 -1.40095,-1.29929 -0.0714,-0.8087 -0.19006,-0.94086 -1.00699,-1.12177 -0.50933,-0.11279 -1.69995,-0.13113 -2.64584,-0.0407 l -1.71979,0.16432 0.48198,-0.53953 c 0.26508,-0.29675 1.25894,-0.91068 2.20857,-1.36429 1.23571,-0.59026 1.68402,-0.9357 1.57685,-1.21499 -0.0901,-0.23477 0.005,-0.39025 0.23882,-0.39025 0.21372,0 0.38857,-0.10517 0.38857,-0.23372 0,-0.12855 0.23813,-0.296 0.52917,-0.37211 0.57329,-0.14991 0.74009,0.21204 0.19844,0.43061 -0.24692,0.0996 -0.24963,0.13874 -0.0107,0.15434 0.17601,0.0115 0.6225,-0.30532 0.99219,-0.70402 0.65956,-0.7113 0.91136,-1.30624 0.42586,-1.00619 -0.13546,0.0837 -0.32108,0.0312 -0.41249,-0.11667 -0.0914,-0.1479 -0.0401,-0.2689 0.11401,-0.2689 0.15411,0 0.2802,-0.11287 0.2802,-0.25082 0,-0.32893 -1.57208,0.1979 -2.19214,0.73461 -0.2598,0.22487 -0.41236,0.5652 -0.33903,0.75629 0.1714,0.44667 -0.22901,0.45037 -0.59821,0.006 -0.26962,-0.32487 -2.75115,-1.5428 -3.88208,-1.90531 l -0.52916,-0.16962 0.50707,-0.28459 c 0.27888,-0.15652 1.12118,-0.28459 1.87176,-0.28459 1.12962,0 1.40688,-0.0952 1.6096,-0.55281 0.13469,-0.30406 0.48303,-0.674 0.77407,-0.8221 0.35145,-0.17885 0.49981,-0.47653 0.44176,-0.88641 -0.0481,-0.33943 0.10767,-0.8327 0.34611,-1.09617 0.38665,-0.42725 0.39236,-0.57504 0.0528,-1.36724 -0.20939,-0.48852 -0.76905,-1.27806 -1.24368,-1.75453 -1.13444,-1.13884 -0.85787,-1.34634 0.54588,-0.40955 0.6154,0.41068 1.43033,0.95443 1.81094,1.20833 0.83037,0.55391 1.11967,0.58788 0.93626,0.10993 -0.17872,-0.46573 0.56468,-1.06999 1.07531,-0.87405 0.30187,0.11584 0.40024,-0.0394 0.40024,-0.63185 0,-0.56358 -0.29895,-1.0844 -1.05833,-1.84379 -0.67691,-0.6769 -0.91057,-1.05833 -0.64832,-1.05833 0.74562,0 1.90435,0.76398 2.89885,1.91129 l 0.98072,1.13142 -0.17044,-0.80982 c -0.213,-1.01203 0.63943,-1.99136 1.27454,-1.46426 0.21691,0.18001 0.66913,0.23905 1.06673,0.13926 0.41298,-0.10365 0.85259,-0.0385 1.09449,0.1623 0.33872,0.28111 0.5553,0.18936 1.33556,-0.56577 0.5122,-0.49571 1.15697,-1.4107 1.43282,-2.03331 0.27585,-0.62262 1.15933,-1.82164 1.96328,-2.6645 2.28174,-2.39217 2.80182,-4.67211 1.72331,-7.55468 -0.65234,-1.743533 -1.81884,-2.843594 -3.66585,-3.457078 -1.58514,-0.526497 -2.66244,-0.291917 -4.37688,0.953053 -0.57437,0.417092 -1.15219,0.758346 -1.28404,0.758346 -0.13185,0 -0.82508,-0.526274 -1.5405,-1.1695 -2.0085,-1.805816 -3.34179,-2.348442 -5.47431,-2.227945 -1.89916,0.107312 -3.54009,0.763545 -5.98661,2.39414 -0.71877,0.479057 -1.59039,1.049607 -1.93692,1.267889 -0.74666,0.470315 -2.2801,3.743475 -1.87196,3.995725 0.1495,0.0924 0.57351,1.88029 0.94223,3.97311 0.51349,2.91449 0.67785,4.79598 0.70217,8.03846 0.035,4.66468 -0.27836,6.29457 -1.57845,8.21036 l -0.69585,1.0254 0.62386,0.5016 c 0.34312,0.27587 1.57636,1.36934 2.74053,2.42993 2.05127,1.86876 7.07221,6.19243 7.21348,6.21172 0.0384,0.005 0.33601,-0.1393 0.66146,-0.3212 z m 1.37289,0.0865 c 0.083,-0.13432 0.477,-0.31878 0.87551,-0.40991 1.33115,-0.30439 1.82215,-0.93606 1.7024,-2.19013 -0.12642,-1.32396 -0.58095,-1.519 -0.58095,-0.24929 0,0.75888 -0.20081,1.02261 -1.51094,1.98438 -0.83102,0.61005 -1.3143,1.10918 -1.07395,1.10918 0.24034,0 0.50491,-0.1099 0.58793,-0.24423 z m 5.47774,-0.68451 c -0.13249,-0.4954 -0.27643,-0.65572 -0.40375,-0.44972 -0.10881,0.17607 -0.48848,0.32013 -0.84369,0.32013 -0.35521,0 -0.64584,0.13294 -0.64584,0.29543 0,0.16571 0.26754,0.24428 0.60932,0.17894 0.33512,-0.0641 0.76385,0.0489 0.95273,0.25115 0.4708,0.50399 0.57517,0.31621 0.33123,-0.59593 z m 2.23632,0.46572 c 0.51352,-0.67647 0.44439,-1.12448 -0.17349,-1.12448 -0.29799,0 -0.83377,-0.31504 -1.19062,-0.70009 l -0.64883,-0.70009 v 0.81993 c 0,1.82662 1.16893,2.81657 2.01294,1.70473 z m -4.4431,-0.39687 c 0.0534,-0.28195 -0.0751,-0.46303 -0.32856,-0.46303 -0.22895,0 -0.41628,0.1229 -0.41628,0.27312 0,0.1502 -0.26789,0.38594 -0.59531,0.52385 -0.51519,0.217 -0.47097,0.24257 0.32856,0.18991 0.63951,-0.0421 0.95088,-0.20335 1.01159,-0.52385 z m 8.67742,-0.0741 0.43863,-0.66943 0.37623,0.53714 c 0.58345,0.833 1.58585,0.68611 2.20252,-0.32276 l 0.52561,-0.8599 -0.5295,-0.0846 c -0.29122,-0.0465 -0.5295,-0.26288 -0.5295,-0.48085 0,-0.28809 -0.16255,-0.347 -0.59531,-0.21575 -0.51902,0.15742 -0.48323,0.0629 0.27926,-0.73751 0.70394,-0.73895 0.84031,-1.05462 0.69892,-1.61793 -0.15883,-0.63285 -0.91203,-1.02212 -0.91203,-0.47136 0,0.12568 -0.32153,0.55003 -0.71451,0.94301 -0.61456,0.61456 -0.66892,0.7875 -0.38862,1.23634 0.26213,0.41973 0.2539,0.6246 -0.042,1.04713 -0.32915,0.46993 -0.40397,0.48191 -0.7096,0.11365 -0.27917,-0.33638 -0.27909,-0.52858 5.3e-4,-1.05083 0.27695,-0.51748 0.27843,-0.79279 0.008,-1.44619 -0.40466,-0.97693 -0.85939,-1.02617 -1.43028,-0.15488 -0.60784,0.92768 -0.53238,1.39061 0.3003,1.84235 0.40018,0.2171 0.57336,0.39949 0.38484,0.40532 -0.40371,0.0125 -1.64161,1.19424 -1.64161,1.56717 0,0.43452 0.80287,1.08926 1.33571,1.08926 0.2773,0 0.70155,-0.30125 0.9428,-0.66943 z m -6.72383,-1.32472 c 0.42985,-0.94342 -0.16048,-1.51646 -1.32275,-1.28401 -0.85264,0.17053 -1.04489,0.60125 -0.68591,1.53673 0.27122,0.70679 1.65055,0.53324 2.00866,-0.25272 z m 12.92165,-0.63948 c -0.46633,-0.5888 -0.9472,-1.07054 -1.06859,-1.07054 -0.45017,0 -1.05774,0.32918 -1.05774,0.57309 0,0.13854 0.13451,0.16876 0.29891,0.0671 0.18298,-0.11308 0.24734,-0.0422 0.16593,0.18283 -0.0869,0.24016 0.29096,0.56331 1.09016,0.93234 0.67272,0.31064 1.26725,0.52449 1.32117,0.47522 0.0539,-0.0493 -0.2835,-0.5713 -0.74984,-1.16009 z m -8.57071,0.64588 c 0.0845,-0.22013 0.0154,-0.56672 -0.15345,-0.77019 -0.20281,-0.24437 -0.21572,-0.42638 -0.038,-0.53619 0.31906,-0.19719 0.29962,-1.99754 -0.0216,-1.99754 -0.37447,0 -0.24554,-0.97376 0.17516,-1.32292 0.80849,-0.67098 0.28824,-1.85208 -0.81581,-1.85208 -0.67903,0 -0.98234,0.81779 -0.63862,1.72185 0.20708,0.54465 0.13859,0.624 -0.66952,0.7756 -0.49511,0.0929 -0.98343,0.30357 -1.08517,0.46818 -0.12146,0.19653 -0.0338,0.24128 0.2553,0.13035 0.29762,-0.11421 0.44028,-0.0318 0.44028,0.25446 0,0.34124 0.20537,0.39586 1.05833,0.28145 0.58209,-0.0781 1.05834,-0.0342 1.05834,0.0975 0,0.13167 -0.1643,0.2394 -0.36512,0.2394 -0.27033,0 -0.35619,0.37766 -0.33073,1.45474 0.0285,1.20577 0.11505,1.45481 0.50571,1.4552 0.25923,2.6e-4 0.54044,-0.17963 0.62492,-0.39977 z m -9.43062,-0.26121 c 0,-0.21828 -0.19317,-0.39688 -0.42927,-0.39688 -0.35158,0 -0.36965,0.0718 -0.0999,0.39688 0.18115,0.21828 0.37433,0.39687 0.42927,0.39687 0.0549,0 0.0999,-0.17859 0.0999,-0.39687 z m 7.9375,-0.13733 c 0,-0.4487 -0.11646,-0.50627 -0.7276,-0.35966 -0.90135,0.21624 -0.95528,0.2609 -0.73849,0.61168 0.0959,0.1552 0.46503,0.28218 0.82025,0.28218 0.47149,0 0.64584,-0.14421 0.64584,-0.5342 z m 7.40834,-0.25955 c 0,-0.14552 -0.11204,-0.26458 -0.24897,-0.26458 -0.13694,0 -0.32256,0.11906 -0.41249,0.26458 -0.0899,0.14553 0.0221,0.26459 0.24897,0.26459 0.22687,0 0.41249,-0.11906 0.41249,-0.26459 z m -5.02709,-0.26458 c 0,-0.14552 -0.11906,-0.26458 -0.26458,-0.26458 -0.14552,0 -0.26458,0.11906 -0.26458,0.26458 0,0.14552 0.11906,0.26458 0.26458,0.26458 0.14552,0 0.26458,-0.11906 0.26458,-0.26458 z m 2.02847,0.0882 c -0.097,-0.097 -0.25576,-0.097 -0.35277,0 -0.097,0.097 -0.0177,0.17639 0.17639,0.17639 0.19402,0 0.2734,-0.0794 0.17638,-0.17639 z m -12.14327,-0.40238 c -0.16353,-0.4906 -0.73311,-0.57197 -0.73311,-0.10473 0,0.23041 0.18851,0.41892 0.41892,0.41892 0.23041,0 0.37179,-0.14138 0.31419,-0.31419 z m 1.11897,-0.21498 c 0,-0.29104 -0.11906,-0.52916 -0.26458,-0.52916 -0.14552,0 -0.26459,0.23812 -0.26459,0.52916 0,0.29105 0.11907,0.52917 0.26459,0.52917 0.14552,0 0.26458,-0.23812 0.26458,-0.52917 z m 5.02708,0.26459 c 0,-0.14552 -0.11906,-0.26459 -0.26458,-0.26459 -0.14552,0 -0.26458,0.11907 -0.26458,0.26459 0,0.14552 0.11906,0.26458 0.26458,0.26458 0.14552,0 0.26458,-0.11906 0.26458,-0.26458 z m 1.3133,-0.38529 c 0.40017,-0.48217 0.14021,-0.93763 -0.53516,-0.93763 -0.3216,0 -0.51355,0.18131 -0.51355,0.48507 0,0.86639 0.51929,1.09048 1.04871,0.45256 z m 7.15337,0.253 c 0,-0.0728 -0.0595,-0.1323 -0.13229,-0.1323 -0.0728,0 -0.13229,0.0595 -0.13229,0.1323 0,0.0728 0.0595,0.13229 0.13229,0.13229 0.0728,0 0.13229,-0.0595 0.13229,-0.13229 z m -10.94658,-1.40269 c -0.45028,-0.45027 -0.95967,-0.21239 -0.95967,0.44816 0,0.72859 0.30729,0.86559 0.84666,0.37748 0.42809,-0.38742 0.44291,-0.49573 0.11301,-0.82564 z m 1.95075,0.87352 c 0.45857,-0.55255 -0.1062,-1.19733 -1.02459,-1.16974 -0.38236,0.0115 -0.54638,0.0809 -0.36448,0.15434 0.1819,0.0734 0.33073,0.34182 0.33073,0.59648 0,0.85264 0.52568,1.06073 1.05834,0.41892 z m 10.30255,-0.17586 c 0.37575,-0.40332 0.48608,-0.77506 0.37302,-1.25677 -0.13183,-0.56162 -0.0976,-0.62485 0.1911,-0.35331 0.19341,0.1819 0.74751,0.33073 1.23133,0.33073 0.70688,0 0.93174,-0.13694 1.14474,-0.69717 0.31524,-0.82914 -0.27027,-1.94866 -1.01914,-1.94866 -0.62991,0 -1.64027,0.73752 -1.64027,1.19732 0,0.20546 -0.15224,0.31515 -0.33832,0.24374 -0.18608,-0.0714 -0.55992,0.0322 -0.83076,0.23025 -0.38446,0.28113 -0.43209,0.46791 -0.21725,0.85182 0.16342,0.29201 0.18531,0.72812 0.0539,1.07376 -0.38786,1.02016 0.22797,1.2124 1.05165,0.32829 z m -16.38797,-0.19938 c 0,-0.6226 -0.39382,-1.11647 -1.19252,-1.49548 l -0.87036,-0.41301 -1.61439,0.81495 c -0.88792,0.44822 -1.61456,0.84299 -1.61476,0.87728 -2e-4,0.0343 0.62488,0.0257 1.38906,-0.019 0.76419,-0.0448 1.86568,0.0326 2.44776,0.17186 1.42364,0.34065 1.45521,0.34203 1.45521,0.0635 z m 2.69073,-0.31688 c -0.0481,-0.19876 -0.10324,-0.57188 -0.12262,-0.82914 l -0.0352,-0.46775 -0.51705,0.51706 c -0.43575,0.43575 -0.46223,0.58312 -0.1684,0.93717 0.40181,0.48415 0.97268,0.37764 0.84331,-0.15734 z m -1.75339,0.0489 c -0.0837,-0.13546 -0.0312,-0.32108 0.11668,-0.41249 0.45566,-0.28161 0.30691,-0.97483 -0.18869,-0.87938 -0.59172,0.11395 -0.75136,1.53817 -0.17241,1.53817 0.21816,0 0.32814,-0.11083 0.24442,-0.2463 z m 12.50784,-1.16316 c 0.047,-0.39722 -0.0468,-0.7072 -0.21406,-0.7072 -0.16377,0 -0.21939,-0.12682 -0.12359,-0.28182 0.11715,-0.18956 0.31715,-0.15755 0.61092,0.0978 0.8673,0.75376 1.46755,-0.0276 0.68526,-0.89206 l -0.41296,-0.45631 -0.60513,0.56777 c -0.97257,0.91254 -1.29634,1.68963 -0.89378,2.14524 0.47892,0.54203 0.85525,0.35515 0.95334,-0.47339 z m -2.73707,0.3633 c 0.20161,-0.32622 -0.11574,-1.59967 -0.39864,-1.59967 -0.27594,0 -0.44829,0.78677 -0.30429,1.38906 0.12114,0.50665 0.45765,0.60748 0.70293,0.21061 z m -6.63538,-0.43068 c 0.24459,-0.6374 0.19406,-0.90482 -0.17013,-0.90035 -0.6062,0.007 -1.07125,0.4666 -0.90675,0.89528 0.20884,0.54423 0.86879,0.54734 1.07688,0.005 z m 2.21816,-0.18538 c 0.26149,-0.20619 0.20175,-0.33773 -0.26458,-0.58252 -0.7501,-0.39374 -1.52839,-0.0517 -1.52839,0.6716 0,0.43836 0.11995,0.49624 0.7276,0.35108 0.40018,-0.0956 0.8796,-0.29367 1.06537,-0.44016 z m -6.82006,-0.0576 c 0,-0.0728 -0.0595,-0.13229 -0.13229,-0.13229 -0.0728,0 -0.13229,0.0595 -0.13229,0.13229 0,0.0728 0.0595,0.13229 0.13229,0.13229 0.0728,0 0.13229,-0.0595 0.13229,-0.13229 z m 0.79375,-0.13229 c 0,-0.14552 -0.11906,-0.26458 -0.26458,-0.26458 -0.14552,0 -0.26458,0.11906 -0.26458,0.26458 0,0.14552 0.11906,0.26458 0.26458,0.26458 0.14552,0 0.26458,-0.11906 0.26458,-0.26458 z m 2.34656,-0.35507 c 0.16208,-0.19529 0.21634,-0.43342 0.12059,-0.52917 -0.30646,-0.30646 -0.61506,-0.18685 -0.61506,0.2384 0,0.22687 -0.12101,0.3377 -0.2689,0.2463 -0.1479,-0.0914 -0.2004,-0.27703 -0.11668,-0.41249 0.19828,-0.32082 -0.16858,-0.30864 -0.67276,0.0223 -0.35278,0.23158 -0.35278,0.28948 0,0.52106 0.55837,0.36655 1.20683,0.33045 1.55281,-0.0864 z m 4.92948,-0.1741 c 0.0899,-0.14552 0.0445,-0.26458 -0.10106,-0.26458 -0.14552,0 -0.33816,0.11906 -0.4281,0.26458 -0.0899,0.14553 -0.0445,0.26459 0.10106,0.26459 0.14552,0 0.33817,-0.11906 0.4281,-0.26459 z m 4.81174,-0.24012 c 0.0726,-0.27758 0.3591,-0.5641 0.63668,-0.63669 0.70008,-0.18307 0.67923,-1.23985 -0.0244,-1.23985 -0.29105,0 -0.61847,-0.0213 -0.72761,-0.0473 -0.10914,-0.026 -0.23693,0.15256 -0.28398,0.39687 -0.0545,0.2828 0.0897,0.44713 0.39687,0.45225 l 0.48242,0.008 -0.48243,0.28055 c -0.37483,0.21797 -0.55768,0.17765 -0.81976,-0.18076 -0.44756,-0.61207 -1.02291,-0.24649 -0.78957,0.50169 0.32081,1.02869 1.38422,1.33562 1.61183,0.46522 z m -13.49889,0.0637 c -0.097,-0.097 -0.25576,-0.097 -0.35278,0 -0.097,0.097 -0.0176,0.17639 0.17639,0.17639 0.19403,0 0.2734,-0.0794 0.17639,-0.17639 z m 1.41111,-0.0882 c 0,-0.14552 -0.0525,-0.26458 -0.11667,-0.26458 -0.0642,0 -0.19026,0.11906 -0.2802,0.26458 -0.0899,0.14552 -0.0374,0.26458 0.11667,0.26458 0.15411,0 0.2802,-0.11906 0.2802,-0.26458 z m 7.13752,-0.51752 c 0.13401,-0.25039 0.17634,-0.71264 0.0941,-1.0272 -0.0915,-0.34998 -0.0272,-0.57195 0.16582,-0.57195 0.18618,0 0.28411,-0.29813 0.23904,-0.72776 -0.042,-0.40027 0.0188,-0.88173 0.13513,-1.06992 0.25401,-0.41099 -0.26623,-1.11273 -0.82492,-1.11273 -0.32211,0 -0.33506,0.0745 -0.0687,0.39538 0.26954,0.32478 0.2178,0.48473 -0.28975,0.89572 -0.55483,0.44927 -0.57826,0.54899 -0.2296,0.97707 0.34662,0.42556 0.34136,0.45917 -0.049,0.31308 -0.64127,-0.23999 -1.28909,0.35299 -1.35618,1.24137 -0.0981,1.29954 1.5747,1.82568 2.18413,0.68694 z m 8.3882,0.28368 c 0.0827,-0.31633 0.29792,-0.45461 0.58902,-0.37848 0.53897,0.14094 0.94407,-0.30103 1.17915,-1.28645 0.14281,-0.59868 0.0487,-0.76814 -0.60909,-1.09627 -0.93065,-0.46427 -1.07438,-0.36065 -1.07438,0.77457 0,0.47648 -0.12698,0.94481 -0.28219,1.04073 -0.43905,0.27135 -0.62345,-0.0864 -0.26632,-0.51674 0.42829,-0.51606 -0.10809,-1.58776 -0.68405,-1.36675 -0.21902,0.0841 -0.50754,0.15281 -0.64116,0.15281 -0.50718,0 -0.21613,0.73939 0.35237,0.89518 0.47211,0.12938 0.51798,0.21293 0.22167,0.40372 -0.31605,0.2035 -0.30586,0.30837 0.0661,0.68037 0.24189,0.24188 0.43979,0.60987 0.43979,0.81776 0,0.55536 0.55707,0.46073 0.70905,-0.12045 z m -11.0278,-0.0532 c 0,-0.29047 -0.99877,-0.57477 -1.32055,-0.3759 -0.52121,0.32213 -0.25555,0.6272 0.5268,0.60496 0.43656,-0.0124 0.79375,-0.11549 0.79375,-0.22906 z m 11.64167,0.15473 c 0,-0.0728 -0.0595,-0.13229 -0.1323,-0.13229 -0.0728,0 -0.13229,0.0595 -0.13229,0.13229 0,0.0728 0.0595,0.13229 0.13229,0.13229 0.0728,0 0.1323,-0.0595 0.1323,-0.13229 z m -15.21355,-0.61736 c 0,-0.47854 -0.51786,-0.39118 -0.62058,0.10469 -0.0571,0.27589 0.042,0.39684 0.26459,0.32266 0.19579,-0.0653 0.35599,-0.25758 0.35599,-0.42735 z m 1.7012,-0.65503 c -0.0102,-0.31883 -0.0995,-0.75829 -0.19844,-0.97657 -0.15111,-0.33347 -0.27737,-0.30567 -0.79032,0.174 l -0.61048,0.57087 0.5844,0.54446 c 0.67466,0.62854 1.04141,0.51552 1.01484,-0.31276 z m 1.98822,0.10564 c 0.26175,-0.42353 -0.14379,-1.04862 -0.73522,-1.13324 l -0.57295,-0.082 0.59532,-0.52147 c 0.7859,-0.68841 0.75499,-1.19761 -0.0727,-1.19761 -0.77411,0 -1.39565,1.14606 -0.92747,1.71017 0.14738,0.17759 0.1799,0.41097 0.0722,0.51862 -0.2237,0.2237 0.66305,0.94621 1.16132,0.94621 0.18188,0 0.39763,-0.10832 0.47946,-0.24071 z m 5.83558,-0.50894 c 0,-0.47855 -0.51786,-0.39118 -0.62058,0.10469 -0.0571,0.27588 0.042,0.39683 0.26459,0.32265 0.19579,-0.0653 0.35599,-0.25757 0.35599,-0.42734 z m -12.30479,-0.8041 c -0.004,-0.43266 -1.74628,-1.0912 -2.86404,-1.08277 l -1.23533,0.009 1.71979,0.88369 c 1.20748,0.62044 1.81831,0.80506 2.05052,0.61974 0.1819,-0.14516 0.32998,-0.33865 0.32906,-0.42997 z m 11.82734,-0.20538 c 0.20308,-0.52923 -0.81318,-1.53564 -1.34471,-1.33167 -0.66196,0.25401 -0.8569,1.52166 -0.29697,1.93109 0.53559,0.39163 1.37963,0.0834 1.64168,-0.59942 z m 1.81687,0.40952 c 0.24564,-0.39747 -0.86373,-1.48525 -1.17654,-1.15364 -0.3329,0.3529 0.12565,1.44491 0.60673,1.44491 0.21439,0 0.4708,-0.13107 0.56981,-0.29127 z m 1.35158,-0.41321 c -0.0782,-0.0782 -0.28194,-0.0559 -0.45268,0.0496 -0.23017,0.14225 -0.21762,0.24952 0.0485,0.41489 0.35281,0.21919 0.69479,-0.17386 0.40414,-0.4645 z m -11.17275,-0.0726 c 0.53191,-0.58775 0.35178,-1.07501 -0.3974,-1.07501 -0.39423,0 -0.51355,0.18443 -0.51355,0.79375 0,0.9205 0.25984,1.00073 0.91095,0.28126 z m 3.85155,-0.32846 c 0,-0.28235 -1.1658,-0.14686 -1.3751,0.15982 -0.29128,0.42679 0.35086,0.66432 0.8884,0.32862 0.26768,-0.16717 0.4867,-0.38697 0.4867,-0.48844 z m -18.07176,-0.45465 c 0.31975,-0.47186 0.78304,-1.76442 1.02953,-2.87235 0.5664,-2.54588 0.39484,-7.74676 -0.40801,-12.36851 -0.77157,-4.44168 -0.76243,-4.42121 -1.41014,-3.16011 -0.87865,1.7107 -5.48129,12.98146 -5.48129,13.42234 0,0.43567 5.08547,6.03424 5.39042,5.93428 0.16397,-0.0537 0.55974,-0.48379 0.87949,-0.95565 z m 25.21551,-0.04 c 0,-0.64604 -0.35913,-0.83381 -1.19398,-0.62428 l -0.68914,0.17296 0.57285,0.60977 c 0.63402,0.67488 1.31027,0.5931 1.31027,-0.15845 z m -12.63905,0.0127 c 0.36201,-0.33726 0.93371,-0.52916 1.57644,-0.52916 1.35039,0 1.36259,-0.84827 0.0224,-1.55394 -0.73284,-0.38587 -1.6049,0.07 -1.83002,0.95658 l -0.15064,0.59327 -0.80041,-0.56994 c -0.86491,-0.61587 -1.57505,-0.44628 -1.74479,0.41666 -0.23511,1.19534 1.85479,1.68552 2.92708,0.68653 z m 13.82967,-0.0184 c 0,-0.20416 -0.19903,-0.40953 -0.44228,-0.45638 -0.33311,-0.0641 -0.40643,0.0519 -0.29704,0.47022 0.15751,0.60233 0.73932,0.59144 0.73932,-0.0138 z m 1.24795,-0.29467 c -0.40415,-0.40415 -0.70237,-0.10593 -0.47821,0.47822 0.13235,0.3449 0.2471,0.37908 0.48248,0.1437 0.23537,-0.23538 0.23436,-0.38329 -0.004,-0.62192 z m 1.70656,0.40129 c -0.097,-0.097 -0.25576,-0.097 -0.35277,0 -0.097,0.097 -0.0177,0.17639 0.17639,0.17639 0.19402,0 0.2734,-0.0794 0.17638,-0.17639 z m -10.5559,-0.62248 c 0.0418,-0.2211 -0.0931,-0.63332 -0.29983,-0.91605 -0.31966,-0.43716 -0.43955,-0.46124 -0.8014,-0.16093 -0.23403,0.19423 -0.4255,0.64413 -0.4255,0.99978 0,0.5489 0.10963,0.63398 0.72534,0.56291 0.39893,-0.046 0.75956,-0.26461 0.80139,-0.48571 z m 4.2941,-0.14279 c 0,-0.22505 0.25774,-0.38126 0.62906,-0.38126 0.85899,0 1.39924,-0.6595 0.96694,-1.18038 -0.53979,-0.65041 -1.32641,-0.75825 -1.87955,-0.25767 l -0.5102,0.46173 -0.48385,-0.43788 c -0.65565,-0.59335 -0.96825,-0.55165 -1.45706,0.19437 l -0.41427,0.63225 0.47082,0.42608 c 0.5919,0.53566 0.79772,0.53371 1.40213,-0.0133 0.26701,-0.24164 0.57404,-0.3444 0.68229,-0.22836 0.10825,0.11605 0.048,0.26414 -0.13391,0.32911 -0.18191,0.065 -0.33073,0.27687 -0.33073,0.4709 0,0.37373 0.52654,0.66633 0.85989,0.47784 0.10914,-0.0617 0.19844,-0.28377 0.19844,-0.49346 z m 7.54062,-0.6361 c 1.7873,-0.87493 1.77438,-0.9231 -0.13765,-0.51304 -0.94791,0.20329 -1.31356,0.39665 -1.21851,0.64436 0.0747,0.19465 -0.006,0.41174 -0.18005,0.48241 -0.17373,0.0707 -0.25634,0.13635 -0.18358,0.14595 0.0728,0.01 0.84667,-0.33226 1.71979,-0.75968 z m -14.1552,-0.0508 c 0,0.16807 0.11906,0.30559 0.26458,0.30559 0.14552,0 0.26458,-0.14995 0.26458,-0.33323 0,-0.18328 0.23813,-0.48194 0.52917,-0.6637 0.59372,-0.37079 0.70117,-1.01564 0.19844,-1.19101 -0.5272,-0.18389 -0.99219,0.0893 -0.99219,0.58292 0,0.3551 -0.17433,0.42945 -0.79375,0.33854 -0.82324,-0.12083 -0.99122,0.17944 -0.62877,1.12397 l 0.16498,0.42994 0.49648,-0.44931 c 0.29245,-0.26466 0.49648,-0.32372 0.49648,-0.14371 z m 10.8386,0.0584 c 0.15065,-0.28147 0.2739,-0.57913 0.2739,-0.66146 0,-0.29275 -1.09676,-0.1434 -1.86523,0.25399 -0.79975,0.41357 -1.09034,0.83013 -0.39221,0.56223 0.21363,-0.082 0.45878,-0.0352 0.54479,0.10399 0.26903,0.43531 1.15232,0.27646 1.43875,-0.25875 z m 1.06765,-0.44666 c 0,-0.20047 -0.13181,-0.36448 -0.29289,-0.36448 -0.16109,0 -0.22993,0.16408 -0.15297,0.36463 0.077,0.20055 5.3e-4,0.52223 -0.17013,0.71485 -0.25694,0.29021 -0.23074,0.29018 0.15297,-1.6e-4 0.25466,-0.1927 0.46302,-0.51438 0.46302,-0.71484 z m -16.20716,-0.0295 c 0.0596,-0.17865 -0.11389,-0.23802 -0.44351,-0.15182 -0.29771,0.0778 -0.4722,0.25336 -0.38774,0.39002 0.18901,0.30582 0.69858,0.1598 0.83125,-0.2382 z m 7.59319,-0.65847 c 0.60627,-0.86556 0.51352,-1.49304 -0.24899,-1.68441 -1.35697,-0.34058 -1.60582,0.12173 -1.04512,1.94172 0.16082,0.52203 0.84329,0.38633 1.29411,-0.25731 z m 6.23922,0.18333 c 0.54571,-0.65754 -0.0539,-1.619 -1.11024,-1.78019 -0.89765,-0.13698 -1.65313,0.20369 -1.39128,0.62738 0.0797,0.12903 0.35597,0.2346 0.61384,0.2346 0.25786,0 0.62814,0.29766 0.82284,0.66146 0.41077,0.76753 0.60255,0.81377 1.06484,0.25675 z m -13.7935,-0.40446 c 0.71331,-0.59403 0.69949,-0.6383 -0.27179,-0.87084 -0.79108,-0.1894 -1.44222,0.36485 -1.19266,1.01518 0.20697,0.53936 0.70207,0.49056 1.46445,-0.14434 z m -0.5005,-0.38146 c 0,-0.0728 0.0595,-0.13229 0.13229,-0.13229 0.0728,0 0.13229,0.0595 0.13229,0.13229 0,0.0728 -0.0595,0.1323 -0.13229,0.1323 -0.0728,0 -0.13229,-0.0595 -0.13229,-0.1323 z m 17.62335,0.46303 c 0.52809,-0.69567 0.44683,-0.8599 -0.42544,-0.8599 -0.60586,0 -0.79375,0.12004 -0.79375,0.50712 0,0.42669 0.25486,0.69166 0.76459,0.79491 0.0567,0.0115 0.26128,-0.18747 0.4546,-0.44213 z m -16.38863,0.022 c -0.097,-0.097 -0.25577,-0.097 -0.35278,0 -0.097,0.097 -0.0177,0.17638 0.17639,0.17638 0.19403,0 0.2734,-0.0794 0.17639,-0.17638 z m 1.67569,-0.0882 c 0,-0.14552 -0.12609,-0.26458 -0.2802,-0.26458 -0.15411,0 -0.20661,0.11906 -0.11667,0.26458 0.0899,0.14552 0.21602,0.26458 0.2802,0.26458 0.0642,0 0.11667,-0.11906 0.11667,-0.26458 z m 2.1375,-0.68207 c 0.22974,-0.20694 0.55717,-0.37626 0.72761,-0.37626 0.17044,0 0.30989,-0.11533 0.30989,-0.25628 0,-0.14095 -0.16655,-0.19237 -0.37011,-0.11425 -0.20356,0.0781 -0.44871,0.0148 -0.54478,-0.1406 -0.42508,-0.6878 -1.96286,0.29322 -1.98672,1.26742 -0.0108,0.44224 1.2327,0.18873 1.86411,-0.38003 z m 5.91065,0.52147 c 0.70171,-0.26927 0.46744,-0.63315 -0.40763,-0.63315 -0.70435,0 -0.77759,0.0585 -0.49677,0.39688 0.37792,0.45536 0.35148,0.44845 0.9044,0.23627 z m 5.04535,-0.0985 c 0.31574,-0.51089 -0.39156,-1.32899 -1.13041,-1.3075 -0.39506,0.0115 -0.56947,0.0809 -0.38757,0.15434 0.1819,0.0734 0.33073,0.42119 0.33073,0.77286 0,0.45654 0.14688,0.63941 0.51355,0.63941 0.28246,0 0.58562,-0.1166 0.6737,-0.25911 z m -13.34069,-0.54395 c 0.28148,-0.15064 0.51178,-0.38876 0.51178,-0.52916 0,-0.40229 -1.51468,-0.29752 -1.67326,0.11573 -0.26199,0.68275 0.29068,0.87948 1.16148,0.41343 z m -1.34031,-0.90742 c 0,-0.37866 -0.21919,-0.76946 -0.52266,-0.93187 -0.44805,-0.23979 -0.54759,-0.18041 -0.69727,0.41596 -0.11611,0.46263 -0.0518,0.77345 0.19193,0.92782 0.64726,0.40992 1.028,0.25735 1.028,-0.41191 z m 9.525,0.11343 c 0,-1.00522 -0.28109,-1.29683 -1.09342,-1.13437 -0.58007,0.11602 -0.87805,0.028 -1.15828,-0.34213 l -0.3773,-0.49832 -0.008,0.73119 c -0.0139,1.20831 0.4955,1.74953 1.63192,1.73384 0.7868,-0.0108 1.0055,-0.11748 1.0055,-0.49021 z m 1.11684,-0.79831 c 0.0859,-0.58521 -0.0104,-0.87688 -0.34945,-1.05833 -0.65331,-0.34964 -1.0987,-0.31221 -0.9548,0.0802 0.0667,0.18191 0.25202,0.30203 0.41184,0.26695 0.18696,-0.041 0.23413,0.21839 0.13229,0.7276 -0.11991,0.59956 -0.0613,0.79139 0.24164,0.79139 0.24363,0 0.44625,-0.31571 0.51848,-0.80786 z m -9.40712,0.36689 c -0.097,-0.097 -0.25576,-0.097 -0.35277,0 -0.097,0.097 -0.0177,0.17639 0.17639,0.17639 0.19402,0 0.2734,-0.0794 0.17638,-0.17639 z m 2.99862,0.0441 c 0,-0.0728 -0.0595,-0.1323 -0.1323,-0.1323 -0.0728,0 -0.13229,0.0595 -0.13229,0.1323 0,0.0728 0.0595,0.13229 0.13229,0.13229 0.0728,0 0.1323,-0.0595 0.1323,-0.13229 z m -5.82084,-0.78445 c 0,-0.36396 -0.21651,-0.76802 -0.48996,-0.91436 l -0.48996,-0.26222 0.42381,0.90575 c 0.50922,1.08826 0.55611,1.1111 0.55611,0.27083 z m 5.55792,0.25327 c 0.27354,-0.32959 0.21119,-0.51875 -0.35886,-1.0888 -0.84919,-0.84919 -1.49489,-0.6757 -1.49489,0.40165 0,0.74159 0.24739,0.95483 1.22437,1.05534 0.16409,0.0169 0.44731,-0.1488 0.62938,-0.36819 z m 0.79208,0.26659 c 0,-0.0728 -0.0595,-0.13229 -0.13229,-0.13229 -0.0728,0 -0.13229,0.0595 -0.13229,0.13229 0,0.0728 0.0595,0.13229 0.13229,0.13229 0.0728,0 0.13229,-0.0595 0.13229,-0.13229 z m 1.05834,0 c 0,-0.0728 -0.0595,-0.13229 -0.1323,-0.13229 -0.0728,0 -0.13229,0.0595 -0.13229,0.13229 0,0.0728 0.0595,0.13229 0.13229,0.13229 0.0728,0 0.1323,-0.0595 0.1323,-0.13229 z m 6.28517,-0.33073 c 0.0683,-0.20734 -0.14608,-0.33073 -0.57458,-0.33073 -0.44464,0 -0.68351,0.14514 -0.68351,0.41528 0,0.49758 1.09052,0.4243 1.25809,-0.0845 z m 1.65233,-0.0661 c 0,-0.37483 -0.17639,-0.52917 -0.60477,-0.52917 -0.42837,0 -0.60476,0.15434 -0.60476,0.52917 0,0.37483 0.17639,0.52916 0.60476,0.52916 0.42838,0 0.60477,-0.15433 0.60477,-0.52916 z m -13.22917,-0.13229 c 0,-0.0728 -0.0595,-0.1323 -0.13229,-0.1323 -0.0728,0 -0.13229,0.0595 -0.13229,0.1323 0,0.0728 0.0595,0.13229 0.13229,0.13229 0.0728,0 0.13229,-0.0595 0.13229,-0.13229 z m 1.23472,-0.0441 c -0.097,-0.097 -0.25576,-0.097 -0.35278,0 -0.097,0.097 -0.0176,0.17639 0.17639,0.17639 0.19403,0 0.2734,-0.0794 0.17639,-0.17639 z m 3.175,-0.26458 c -0.097,-0.097 -0.25576,-0.097 -0.35278,0 -0.097,0.097 -0.0176,0.17638 0.17639,0.17638 0.19403,0 0.2734,-0.0794 0.17639,-0.17638 z m 1.41111,0.0441 c 0,-0.0728 -0.0595,-0.13229 -0.13229,-0.13229 -0.0728,0 -0.13229,0.0595 -0.13229,0.13229 0,0.0728 0.0595,0.13229 0.13229,0.13229 0.0728,0 0.13229,-0.0595 0.13229,-0.13229 z m 2.33748,-0.5004 c 0.13816,-0.71255 -0.15823,-1.2268 -0.60767,-1.05433 -0.41036,0.15747 -0.56197,1.17917 -0.22499,1.51615 0.28707,0.28707 0.7357,0.0382 0.83266,-0.46182 z m -7.76144,0.10353 c 0.0899,-0.14552 0.0445,-0.26459 -0.10106,-0.26459 -0.14552,0 -0.33816,0.11907 -0.4281,0.26459 -0.0899,0.14552 -0.0445,0.26458 0.10106,0.26458 0.14552,0 0.33817,-0.11906 0.4281,-0.26458 z m 0.92605,-0.13229 c 0,-0.0728 -0.0595,-0.1323 -0.1323,-0.1323 -0.0728,0 -0.13229,0.0595 -0.13229,0.1323 0,0.0728 0.0595,0.13229 0.13229,0.13229 0.0728,0 0.1323,-0.0595 0.1323,-0.13229 z m 4.38332,-0.13902 0.7136,-0.27131 -0.47196,-0.52151 c -0.54095,-0.59774 -1.18538,-0.28929 -1.18538,0.56736 0,0.57887 0.009,0.58096 0.94374,0.22546 z m 5.67084,-0.0973 c 0,-0.20271 -0.15962,-0.42982 -0.35472,-0.50469 -0.48427,-0.18583 -1.07812,0.21676 -0.85418,0.57909 0.26076,0.42193 1.2089,0.36357 1.2089,-0.0744 z m 1.32292,0.10747 c 0.30124,-0.19204 0.32856,-0.36259 0.11339,-0.70781 -0.39384,-0.63184 -0.87639,-0.74201 -1.0676,-0.24372 -0.18067,0.47083 0.0351,1.21476 0.35059,1.20858 0.11371,-0.002 0.38534,-0.1179 0.60362,-0.25705 z m -8.46667,-0.66494 c 0,-0.69365 -0.47853,-0.87084 -0.98474,-0.36464 -0.41109,0.41109 -0.12107,1.02609 0.48388,1.02609 0.35786,0 0.50086,-0.18884 0.50086,-0.66145 z m -2.11666,-0.42907 c 0,-0.13209 -0.43141,-0.6849 -0.95867,-1.22846 -0.67335,-0.69417 -0.8433,-0.79144 -0.57102,-0.32685 0.2132,0.3638 0.46722,0.98468 0.56449,1.37972 0.12123,0.4924 0.30079,0.6707 0.57102,0.56701 0.2168,-0.0832 0.39418,-0.25933 0.39418,-0.39142 z m 7.94852,0.1512 c 0.27936,-0.33661 0.27139,-0.47915 -0.0445,-0.79501 -0.31894,-0.31895 -0.50729,-0.328 -1.09968,-0.0529 -0.39316,0.1826 -0.71576,0.48785 -0.71689,0.67834 -0.001,0.19049 0.117,0.27276 0.26252,0.18282 0.14552,-0.0899 0.26458,-0.0374 0.26458,0.11668 0,0.42658 0.94876,0.33415 1.33394,-0.12996 z m -2.55102,-0.60839 c -0.0642,-0.73898 -0.13451,-0.83353 -0.61939,-0.83353 -0.60871,0 -0.91399,0.40404 -0.70896,0.93834 0.17227,0.44893 1.36828,0.35456 1.32835,-0.10481 z m -1.74108,-0.79619 c 0.12233,-0.81971 -0.6972,-0.72933 -1.01714,0.11217 -0.34766,0.91442 -0.34331,0.9231 0.33728,0.67306 0.32742,-0.12029 0.63336,-0.47365 0.67986,-0.78523 z m -1.56889,0.39463 c 0.22797,-0.27469 0.20671,-0.43939 -0.0883,-0.68423 -0.48506,-0.40257 -0.94089,-0.14461 -0.94089,0.53245 0,0.59348 0.59036,0.68055 1.0292,0.15178 z m 4.64562,-0.14519 c 0.0824,-0.13331 0.0279,-0.56297 -0.12106,-0.9548 -0.22477,-0.59118 -0.33766,-0.65698 -0.66335,-0.38668 -0.4068,0.33761 -0.52382,1.09976 -0.21611,1.40747 0.25448,0.25448 0.82575,0.21679 1.00052,-0.066 z m 1.62878,-0.47971 c -0.26895,-0.26895 -0.49087,0.13597 -0.27019,0.49302 0.16669,0.26972 0.22901,0.26993 0.31863,0.001 0.0613,-0.18383 0.0395,-0.40617 -0.0484,-0.49409 z m 33.95757,-4.79411 1.12043,-4.59016 -0.82887,-5.596296 c -0.45587,-3.077964 -1.24099,-8.394269 -1.74472,-11.814009 -0.50371,-3.419739 -0.96368,-6.425297 -1.02213,-6.67902 -0.0585,-0.253722 0.17748,-0.849034 0.5243,-1.322916 1.3628,-1.862098 1.36979,-1.958703 0.22646,-3.129576 -1.72991,-1.771584 -2.64584,-1.672183 -4.10267,0.44524 l -0.83391,1.212041 1.07186,1.099095 1.07185,1.099095 -0.60662,12.303125 -0.60662,12.303121 2.12533,4.97664 c 1.23967,2.90281 2.20023,4.83228 2.3051,4.63021 0.0989,-0.19053 0.68397,-2.412 1.30021,-4.93659 z m -34.22294,4.51996 c 0.16024,-0.10691 0.37177,-0.99656 0.47005,-1.97699 0.0983,-0.98044 0.24421,-1.99247 0.32429,-2.24896 0.0813,-0.26034 -0.19662,-0.0825 -0.6291,0.40252 -1.63508,1.83383 -1.76726,4.89227 -0.16524,3.82343 z m 28.92733,-27.404675 0.29992,-6.043623 -0.92239,-1.020988 -0.9224,-1.020984 -0.33017,0.913047 c -0.18158,0.502177 -0.42164,0.913048 -0.53346,0.913048 -0.27814,0 -1.98361,-2.695413 -2.92969,-4.630208 l -0.77625,-1.5875 0.16741,4.233333 c 0.34993,8.848709 1.71541,16.368297 4.20398,23.15104 l 0.82514,2.24896 0.309,-5.55625 c 0.16994,-3.055937 0.44396,-8.275881 0.60891,-11.599875 z m 7.30425,15.502475 c 0.56299,-1.92533 1.35036,-5.78148 1.87735,-9.194266 0.38393,-2.486383 0.87799,-19.251004 0.5575,-18.917708 -0.07,0.07276 -0.5157,1.203854 -0.99053,2.513541 -0.47483,1.309688 -1.06768,2.786071 -1.31745,3.280852 l -0.45412,0.899602 -0.84649,-1.230331 c -0.46557,-0.676683 -0.93991,-1.230331 -1.05408,-1.230331 -0.11418,0 -0.57721,0.459933 -1.02895,1.022072 l -0.82136,1.022072 0.49366,3.145115 c 0.27152,1.729814 1.06081,6.984881 1.75398,11.677928 0.69318,4.693044 1.28851,8.532814 1.32297,8.532814 0.0345,0 0.26285,-0.68461 0.50752,-1.52136 z m 11.41756,-6.856009 2.46264,-0.439867 v -0.618466 c 0,-0.551579 -0.12163,-0.618217 -1.12448,-0.616167 -0.61847,0.0013 -1.74345,0.07666 -2.49994,0.167537 -1.23024,0.147788 -1.40486,0.249491 -1.65365,0.963224 -0.15301,0.438893 -0.27818,0.839753 -0.27818,0.890796 0,0.166217 0.59163,0.09984 3.09361,-0.347057 z m -41.96308,-7.894328 c 0.51923,-1.474414 0.73584,-1.903531 1.77085,-3.508137 l 0.38554,-0.597723 -1.60511,0.79638 c -3.84427,1.907342 -6.82603,2.592639 -8.67309,1.993339 -0.45181,-0.146595 -0.66898,0.0093 -1.15081,0.825913 -0.93595,1.586317 -0.97777,2.494256 -0.15966,3.466526 0.7241,0.860539 3.07716,1.918494 4.26704,1.918494 1.29887,0 2.49155,0.721217 2.93765,1.776415 l 0.42349,1.00171 0.62252,-3.042709 c 0.34238,-1.673489 0.87409,-3.757083 1.18158,-4.630208 z m -31.1937,-0.799036 c 1.13186,-1.438926 3.25823,-1.845691 5.50483,-1.053047 0.70157,0.247531 2.08456,0.396875 3.6752,0.396875 2.90652,0 3.79903,-0.337315 5.8498,-2.210872 2.86266,-2.615295 3.95082,-4.221744 5.80794,-8.574301 1.72094,-4.033404 3.41118,-5.692045 6.68991,-6.564866 1.47538,-0.392755 7.4194,-0.495628 9.33027,-0.16148 l 1.05833,0.185065 0.49325,1.453333 c 0.54571,1.607947 0.86,4.605834 0.59397,5.665768 -0.0943,0.375735 -0.85375,1.445086 -1.68767,2.376337 -0.83392,0.931254 -1.7884,2.182519 -2.12108,2.780594 l -0.60486,1.087405 1.92778,-1.375005 c 4.5431,-3.240413 5.38403,-4.10115 6.16257,-6.307759 0.52787,-1.496155 0.51873,-5.360546 -0.0164,-6.931049 -0.42957,-1.260708 -1.85965,-2.906172 -3.07517,-3.538307 -0.38987,-0.202753 -0.78013,-0.593214 -0.86724,-0.86769 -0.24409,-0.769038 -1.9022,-2.357025 -3.13515,-3.00255 -1.56723,-0.820539 -4.90203,-0.828776 -7.45959,-0.01842 -3.76526,1.193006 -4.78491,2.001887 -12.17094,9.655212 -2.39264,2.479222 -3.65908,3.244797 -7.33908,4.436549 -5.07287,1.642822 -8.50716,5.517216 -9.21236,10.392897 -0.42906,2.966497 -0.32515,3.34596 0.59568,2.175314 z m 54.33123,-11.100356 0.87189,-0.871886 -1.29729,-0.840613 c -0.71351,-0.462339 -2.07154,-1.618682 -3.01784,-2.56965 l -1.72055,-1.729033 -0.24526,0.645088 c -0.13489,0.354799 -0.32573,1.181727 -0.42409,1.837619 -0.19229,1.282287 0.35059,2.644381 2.43247,6.103075 l 0.91681,1.523127 0.80599,-1.612921 c 0.44329,-0.887106 1.19833,-2.005267 1.67787,-2.484806 z m 7.52712,3.234288 c 2.46436,-6.756799 2.60356,-7.904522 1.21344,-10.005126 l -0.73277,-1.107289 -0.83429,1.49297 c -1.01442,1.81534 -2.94597,4.260151 -3.90569,4.943533 l -0.70593,0.50266 1.71316,1.78897 c 0.94223,0.983932 1.9071,2.116391 2.14415,2.516574 0.5548,0.936606 0.72551,0.916223 1.10793,-0.132292 z m -4.55434,-5.139002 c 1.33557,-1.094404 3.17023,-3.472257 3.98983,-5.171117 l 0.54665,-1.13311 -0.28625,-1.918229 c -0.15744,-1.055026 -0.37634,-1.918229 -0.48645,-1.918229 -0.1101,0 -0.99913,0.89268 -1.97562,1.983732 -1.54025,1.720956 -1.96807,2.039734 -3.22974,2.40651 -1.72483,0.501422 -2.81733,0.352713 -4.70237,-0.64007 -0.73564,-0.387437 -1.42682,-0.744802 -1.53596,-0.794141 -0.10914,-0.04934 -0.19844,0.438128 -0.19844,1.083265 0,1.21585 0.75667,2.556078 2.14695,3.8027 0.82266,0.737655 4.23963,3.270504 4.4121,3.270504 0.0733,0 0.66701,-0.437317 1.3193,-0.971815 z m -1.42676,-6.232414 c 0.73276,-0.218718 1.47855,-0.755965 2.27966,-1.642194 0.65484,-0.724422 1.64773,-1.760289 2.20643,-2.301928 1.29047,-1.251083 1.48321,-2.100604 1.49261,-6.578733 l 0.007,-3.571874 -0.93241,-1.852084 c -0.53218,-1.057097 -1.10222,-2.751029 -1.32802,-3.946361 -0.21759,-1.151853 -0.52749,-2.253181 -0.68868,-2.447395 -0.49795,-0.599993 -1.79049,-0.395097 -4.03142,0.639069 L 159.17771,46.9 l -4.10104,0.132292 -4.10104,0.132292 -0.0731,3.887464 -0.0731,3.887465 0.82531,2.727119 c 0.45392,1.499914 0.97139,3.322431 1.14993,4.050035 0.17855,0.727604 0.4606,1.57448 0.62678,1.881944 0.91146,1.686351 5.22642,4.288351 7.17084,4.324151 0.34692,0.0064 1.12083,-0.134665 1.71979,-0.313449 z m -10.59373,-7.943167 c -1.00172,-3.398306 -1.28476,-4.024032 -2.00007,-4.421645 -0.52586,-0.292304 -0.79684,-0.320657 -1.01165,-0.105852 -0.2148,0.214805 0.0388,0.957932 0.94687,2.774249 1.40128,2.802916 1.6307,3.14231 2.12408,3.14231 0.28305,0 0.27169,-0.266422 -0.0592,-1.389062 z m 18.19933,-2.645833 c 0.35038,-0.686213 0.62415,-1.820548 0.70239,-2.910417 l 0.12819,-1.785937 h -0.54973 c -0.99425,0 -1.37346,0.965917 -1.37346,3.498455 0,1.339744 0.10967,2.322378 0.25921,2.322378 0.14256,0 0.51759,-0.506016 0.8334,-1.124479 z m -19.2617,-10.165154 c 0.1207,-0.120859 2.08523,-0.279585 4.36562,-0.352724 l 4.14618,-0.132985 2.14997,-0.991494 c 3.82247,-1.762803 4.74999,-1.309243 5.2768,2.580378 0.16892,1.24719 1.50638,4.47848 1.97307,4.766908 0.23622,0.145994 0.31294,-0.169604 0.93367,-3.840867 0.4678,-2.766795 0.37718,-3.928538 -0.45783,-5.869582 -1.12355,-2.611763 -4.56723,-4.739666 -8.84935,-5.468146 -2.08583,-0.354846 -2.69625,-0.365749 -4.11879,-0.07357 -2.39349,0.491609 -4.45371,1.687162 -6.27323,3.64038 -0.86356,0.927023 -1.7587,1.685499 -1.98919,1.685499 -0.60197,0 -0.51684,0.462481 0.12248,0.66539 l 0.54155,0.171884 -0.71709,1.235008 c -0.3944,0.679255 -0.82233,1.30505 -0.95095,1.390656 -0.12863,0.08561 -0.0496,0.308544 0.17553,0.495419 0.22517,0.186872 0.4094,0.62013 0.4094,0.962792 0,0.702307 0.89863,3.157495 2.02402,5.529892 l 0.75305,1.5875 0.13282,-3.8813 c 0.073,-2.134716 0.23157,-3.980185 0.35227,-4.101041 z"
       id="path1" />
  </g>
</svg>
