<?xml version="1.0" encoding="UTF-8" standalone="no"?>
<!-- Created with Inkscape (http://www.inkscape.org/) -->

<svg
   width="169.33333mm"
   height="209.28542mm"
   viewBox="0 0 169.33333 209.28542"
   version="1.1"
   id="svg1"
   xmlns="http://www.w3.org/2000/svg"
   xmlns:svg="http://www.w3.org/2000/svg">
  <defs
     id="defs1" />
  <g
     id="layer1"
     transform="translate(-19.84375,-44.714584)">
    <path
       d="m 129.87683,205.70011 c -5.28033,0 -9.56118,4.28085 -9.56118,9.56117 0,1.78377 0.48844,3.45328 1.33894,4.88239 1.66717,2.80133 8.15247,11.17709 8.15247,11.17709 0,0 6.62807,-8.37771 8.29459,-11.18174 0.84872,-1.42804 1.33583,-3.09599 1.33583,-4.87774 0,-5.28032 -4.28033,-9.56117 -9.56065,-9.56117 z m -0.0698,6.48435 a 3.2477193,3.2477193 0 0 1 3.24735,3.24787 3.2477193,3.2477193 0 0 1 -3.24735,3.24786 3.2477193,3.2477193 0 0 1 -3.24786,-3.24786 3.2477193,3.2477193 0 0 1 3.24786,-3.24787 z"
       style="fill:#fff0eb;stroke:#fff0eb;stroke-width:0.339589;stroke-linejoin:round;stroke-miterlimit:10"
       id="path7" />
    <path
       style="fill:none;fill-opacity:1;stroke:#fff0eb;stroke-width:1.5;stroke-linejoin:round;stroke-miterlimit:10;stroke-dasharray:9, 24;stroke-dashoffset:18;stroke-opacity:1"
       d="m 129.80706,231.32076 c -11.4504,7.41674 -33.956401,21.00627 -46.921792,11.21949 -20.168314,-15.22382 -29.81108,6.27351 -47.232892,-1.30118 C 29.666941,238.63671 13.410411,228.36753 26.544105,205.32646 42.761601,176.87534 149.49344,206.4171 183.98708,132.72053 203.53946,90.946356 128.42743,90.176069 109.55949,79.372077 97.913205,72.703288 92.644131,43.459466 92.644131,43.459466"
       id="path8" />
  </g>
</svg>
