<?xml version="1.0" encoding="UTF-8" standalone="no"?>
<!-- Created with Inkscape (http://www.inkscape.org/) -->

<svg
    width="115.14981mm"
    height="21.477455mm"
    viewBox="0 0 115.14981 21.477455"
    version="1.1"
    id="svg1"
    xml:space="preserve"
    xmlns="http://www.w3.org/2000/svg"
    xmlns:svg="http://www.w3.org/2000/svg"><g
     id="layer1"
     transform="translate(-7.6453,-174.65064)"><g
       id="g1"
       transform="matrix(0.26458333,0,0,0.26458333,-1.6664056,0)"><g
>
		<path
   style="fill:#D686A8"
   d="m 37.578,700.107 v 0 c 0.021,0.054 0.03,-0.059 0,0 z"
   id="path37" />
		<polygon
   style="fill:#D686A8"
   points="37.578,700.107 37.576,700.103 37.575,700.107 37.576,700.111 "
   id="polygon37" />
		<path
   style="fill:#D686A8"
   d="m 470.003,714.989 c 0.122,-0.348 0.098,-0.753 -0.079,-1.066 -0.051,-0.09 -0.102,-0.18 -0.153,-0.271 -0.201,-0.355 -0.655,-0.654 -1.076,-0.617 -0.114,0.01 -0.227,0.021 -0.341,0.03 -0.341,0.03 -0.672,0.18 -0.898,0.431 -1.096,-0.296 -3.607,-0.857 -3.878,-0.905 -2.348,-0.414 -4.676,-0.924 -6.983,-1.527 -4.092,-1.07 -8.074,-2.46 -11.969,-4.093 7.51,-5.893 12.148,-15.244 11.03,-24.861 0.634,-0.572 0.23,-1.365 -0.417,-1.623 -0.323,-0.23 -0.835,-0.151 -1.114,0.159 -0.002,0.002 -0.004,0.002 -0.006,0.004 -6.127,4.887 -12.799,9.071 -19.969,12.253 -3.633,1.612 -7.371,2.99 -11.179,4.129 -3.42,1.022 -7.049,1.564 -10.409,2.766 -0.615,-3.01 -1.276,-5.994 -1.986,-8.916 -2.051,-8.443 -8.936,-8.243 -15.655,-4.916 -0.02,0.01 -0.035,0.023 -0.055,0.034 -0.381,-1.442 -0.774,-2.881 -1.189,-4.312 -1.502,-5.182 -2.878,-13.94 -8.708,-16.26 -2.689,-1.07 -5.618,0.014 -8.272,0.665 -4.632,1.135 -9.259,2.294 -13.887,3.446 -4.885,1.216 -9.766,2.449 -14.648,3.674 -3.46,0.869 -8.247,1.208 -10.984,3.685 -0.979,-1.881 -1.965,-3.758 -2.874,-5.674 -1.509,-3.18 -2.343,-6.487 -3.611,-9.733 -0.191,-0.488 -0.658,-0.743 -1.117,-0.774 -0.353,-0.52 -1.024,-0.833 -1.737,-0.45 -22.322,11.978 -47.841,13.423 -72.67,12.207 -26.694,-1.308 -53.187,-4.868 -79.757,-7.545 -0.771,-1.131 -2.876,-0.432 -2.379,1.057 1.354,4.054 1.936,8.148 1.854,12.212 -6.574,-0.471 -12.824,-0.745 -19.204,-2.766 -6.424,-2.036 -12.333,-5.208 -17.712,-9.247 -0.626,-0.47 -1.824,-0.005 -1.934,0.787 -0.988,7.153 -3.413,13.716 -6.908,19.736 -5.889,-0.705 -11.524,-1.609 -17.077,-3.824 -2.771,-1.105 -5.794,-2.971 -7.291,0.661 -1.991,4.83 -3.067,9.99 -4.964,14.901 -16.284,-3.821 -28.632,-16.683 -41.583,-26.49 -0.633,-0.479 -1.37,-0.159 -1.778,0.399 -0.33,0.183 -0.561,0.526 -0.537,1.033 0.457,9.482 6.138,17.364 11.27,25.022 -5.413,0.643 -10.858,0.907 -16.311,0.752 -2.562,-0.072 -5.122,-0.23 -7.677,-0.427 -1.527,-0.118 -3.051,-0.267 -4.58,-0.365 0.015,10e-4 -0.507,-0.025 -1.009,-0.013 -0.2,-0.094 -0.425,-0.109 -0.651,-0.051 -0.039,-0.049 -0.078,-0.097 -0.116,-0.146 -0.055,-0.069 -0.186,-0.081 -0.257,-0.034 -0.379,0.252 -0.488,0.491 -0.401,0.714 -0.054,0.072 -0.102,0.146 -0.142,0.222 -0.086,0.163 -0.152,0.341 -0.188,0.521 -0.013,0.064 -0.015,0.131 -0.02,0.198 -0.494,0.081 -0.873,0.707 -0.421,1.188 8.453,8.993 18.157,16.867 28.486,23.605 9.827,6.41 21.063,13.353 33.035,14.313 3.175,0.254 8.14,0.46 9.778,-2.969 0.004,-0.004 0.008,-0.005 0.012,-0.009 1.959,-2.089 3.235,-4.743 4.632,-7.224 1.579,-2.805 3.18,-5.599 4.712,-8.43 0.04,-0.074 0.069,-0.147 0.091,-0.219 1.167,0.336 2.348,0.618 3.56,0.798 3.435,0.509 7.965,0.381 9.161,-3.22 2.09,0.476 3.134,-3.383 3.857,-4.717 2.162,-3.994 4.295,-8.01 6.36,-12.055 5.17,1.953 10.347,3.888 15.521,5.832 4.93,1.852 9.86,3.703 14.791,5.555 4.586,1.722 9.301,4.064 14.096,5.105 2.487,0.54 5.557,0.043 7.178,-1.543 0.288,-0.017 0.576,-0.175 0.712,-0.51 1.152,-2.831 2.213,-5.695 3.298,-8.552 0.961,-2.531 2.236,-5.085 2.8,-7.743 6.728,1.09 13.453,2.2 20.191,3.231 14.499,2.217 29.086,4.09 43.762,4.505 14.461,0.408 29.056,-0.539 43.179,-3.804 0.279,-0.065 0.553,-0.139 0.831,-0.206 -0.13,0.185 -0.195,0.42 -0.122,0.692 1.298,4.841 3.04,9.502 4.276,14.369 -0.048,0.073 -0.099,0.141 -0.146,0.216 -0.32,0.504 -0.149,0.982 0.204,1.262 -0.254,1.471 0.25,3.096 1.405,4.375 3.284,3.633 9.179,1.839 13.214,0.848 13.957,-3.429 27.263,-8.969 40.988,-13.16 1.459,-0.446 2.924,-0.874 4.394,-1.289 0.343,1.591 1.05,3.125 1.329,4.75 0.251,1.461 0.313,2.902 0.261,4.347 -0.07,0.11 -0.147,0.214 -0.211,0.328 -1.981,3.533 1.036,6.949 4.288,8.175 6.643,2.506 14.813,-2.341 22.436,-5.164 0.94,3.87 1.896,7.78 3.089,11.583 -0.084,0.917 0.077,1.927 0.562,3.055 2.677,6.223 12.248,3.91 17.175,2.939 18.584,-3.662 36.493,-11.667 51.439,-23.323 0.593,-0.468 0.434,-1.243 -0.017,-1.726 z M 102.335,736.51 c -1.078,0.193 -2.165,0.272 -3.258,0.239 -2.3,0.009 -4.602,-0.331 -6.84,-0.836 -7.409,-1.669 -14.233,-5.425 -20.738,-9.233 -12.185,-7.133 -23.214,-15.745 -33.559,-25.3 0.054,-0.074 0.101,-0.154 0.126,-0.246 0.113,-0.412 -0.11,-0.73 -0.442,-0.915 0.016,0 -0.039,-0.073 -0.025,-0.015 -0.007,-0.027 -0.016,-0.064 -0.023,-0.094 -0.013,0.026 -0.011,0.019 -10e-4,-0.004 -0.003,-0.011 -0.006,-0.024 -0.007,-0.026 0.003,0.014 0.005,0.014 0.008,0.022 0.01,-0.025 0.024,-0.06 0.027,-0.076 0.006,-0.031 0.011,-0.063 0.013,-0.085 0.002,-0.002 0.006,-0.005 0.007,-0.006 0.008,-0.004 0.012,-0.006 0.023,-0.013 0.061,-0.036 0.103,-0.09 0.153,-0.137 2.001,0.641 5.13,1.023 5.383,1.057 8.658,1.156 17.458,0.887 26.102,-0.242 0.85,-0.111 1.629,-0.981 1.061,-1.85 -4.646,-7.111 -10.298,-14.367 -11.685,-22.907 6.367,5.203 12.822,10.377 19.476,15.19 6.235,4.509 13.158,8.396 20.926,9.181 -0.042,0.095 -0.077,0.193 -0.119,0.287 -2.194,4.901 -6.003,9.742 -7.373,14.896 -0.11,0.413 0.189,0.677 0.524,0.691 -0.611,2.737 2.032,6.125 3.688,7.971 1.911,2.131 7.889,4.795 8.498,7.372 -0.647,1.693 -1.296,3.386 -1.945,5.079 z M 98.75,723.86 c -2.19,-1.876 -4.27,-4.34 -3.51,-6.877 0.644,-2.152 1.971,-2.023 4.047,-1.939 1.266,0.051 2.508,0.252 3.736,0.534 -0.903,3.136 -2.146,5.814 -4.273,8.282 z m 6.019,-7.829 c 0.02,0.006 0.041,0.011 0.061,0.017 1.161,0.343 2.304,0.751 3.442,1.174 -1.457,3.512 -2.986,6.863 -4.987,10.101 -0.775,-0.624 -1.571,-1.194 -2.296,-1.718 -0.367,-0.265 -0.766,-0.561 -1.176,-0.879 2.502,-2.268 4.383,-5.356 4.956,-8.695 z m 4.836,11.64 c -0.84,1.523 -1.761,3.045 -2.522,4.628 -0.399,-1.589 -1.515,-2.956 -2.824,-4.146 2.393,-3.109 4.442,-6.573 5.672,-10.313 1.415,0.543 2.828,1.093 4.258,1.581 -1.563,2.731 -3.064,5.496 -4.584,8.25 z m -2.432,-13.261 c -3.112,-1.051 -8.264,-2.606 -11.889,-1.386 2.085,-2.811 3.621,-6.32 5.034,-9.244 2.124,-4.394 3.911,-8.966 5.371,-13.621 0.354,-1.128 0.966,-5.781 2.226,-6.112 0.038,-0.01 3.102,1.301 3.422,1.427 1.308,0.515 2.635,0.983 3.978,1.398 3.94,1.218 8.131,2.114 12.285,2.326 -2.2,3.406 -4.739,6.634 -7.565,9.682 -0.368,0.397 -0.193,0.848 0.149,1.044 -0.01,0.034 -0.025,0.063 -0.033,0.099 -1.431,6.363 5.432,8.894 6.56,14.462 1.8,8.887 -16.198,1.053 -19.538,-0.075 z m 24.272,-16.404 c 0.033,0.009 0.066,0.022 0.099,0.031 -2.05,3.427 -3.894,7.06 -5.755,10.607 -1.668,-2.088 -3.365,-4.123 -3.534,-6.588 0.121,-0.057 0.217,-0.166 0.244,-0.352 0.658,-4.397 5.481,-4.697 8.946,-3.698 z m 1.72,9.695 c -0.615,1.201 -1.222,2.404 -1.826,3.61 -0.401,0.805 -0.803,1.61 -1.204,2.414 -0.472,0.692 -0.723,1.443 -0.764,2.251 -0.066,-0.034 -0.145,-0.043 -0.229,-0.035 0.089,-2.358 -1.063,-4.296 -2.447,-6.13 2.567,-3.409 5.008,-7.25 6.665,-11.18 1.257,0.444 2.502,0.942 3.741,1.437 -1.332,2.533 -2.631,5.085 -3.936,7.633 z m 53.713,7.502 c -2.979,1.32 -9.774,-2.586 -12.427,-3.574 l -14.061,-5.24 c -9.022,-3.362 -17.991,-7.04 -27.128,-10.075 -2.226,-0.739 -5.345,-1.118 -7.831,-0.463 6.859,-7.125 11.141,-16.452 12.835,-26.225 10.237,7.187 23.918,12.336 36.502,10.998 -0.413,4.832 -1.76,9.6 -3.89,14.182 -0.01,0.02 -0.007,0.039 -0.015,0.059 -0.404,0.383 -0.755,0.84 -1.028,1.394 -0.582,1.182 -0.628,2.339 -0.242,3.361 -0.455,0.307 -0.659,0.947 -0.154,1.455 2.338,2.353 5.723,3.408 8.796,4.473 2.08,0.721 4.204,1.382 6.184,2.358 0.976,0.481 2.21,0.979 2.91,1.833 1.007,1.229 1.025,4.809 -0.451,5.464 z m -4.718,-15.307 c -0.349,1.35 -0.707,2.696 -1.007,4.058 -1.603,-0.644 -3.204,-1.267 -4.799,-1.911 0.388,-1.259 0.825,-2.498 1.406,-3.685 0.381,-0.779 0.915,-1.495 1.239,-2.285 1.357,0.182 2.715,0.425 4.06,0.63 -0.487,0.967 -0.633,2.164 -0.899,3.193 z m 1.584,0.437 c 0.37,-1.074 0.947,-2.217 1.021,-3.364 1.567,0.241 3.134,0.483 4.699,0.73 -0.331,1.259 -0.513,2.585 -0.867,3.825 -0.484,1.693 -1.079,3.354 -1.767,4.975 -0.868,-0.487 -1.768,-0.911 -2.635,-1.285 -0.64,-0.276 -1.279,-0.533 -1.919,-0.796 0.012,-0.024 0.03,-0.04 0.041,-0.067 0.512,-1.327 0.964,-2.674 1.427,-4.018 z m -7.489,-2.61 c -0.494,1.24 -0.867,2.514 -1.118,3.821 -0.966,-0.399 -1.931,-0.807 -2.891,-1.241 -0.005,-0.006 -0.006,-0.013 -0.011,-0.019 l -0.074,-1.448 c -0.549,-1.999 0.549,-3.009 3.296,-3.031 0.509,-0.06 1.069,0.016 1.585,0.059 -0.315,0.593 -0.545,1.251 -0.787,1.859 z m 16.729,7.863 c -0.584,1.744 -1.175,3.486 -1.756,5.231 -0.02,-0.045 -0.036,-0.088 -0.058,-0.134 -0.707,-1.499 -1.918,-2.633 -3.297,-3.548 1.562,-2.639 3.29,-5.981 3.609,-9.113 1.305,0.208 2.61,0.416 3.914,0.625 0.001,0 0.002,0 0.004,10e-4 -1.056,2.196 -1.645,4.637 -2.416,6.938 z m 12.347,-8.059 c -9.378,-1.52 -19.232,-4.059 -28.742,-4.346 -0.964,-0.029 -1.959,0.034 -2.897,0.25 4.281,-8.041 4.918,-17.497 2.478,-26.251 26.734,4.073 54.084,6.725 81.083,7.919 24.246,1.072 49.501,-0.543 71.285,-12.202 0.589,4.969 3.498,9.95 5.738,14.255 2.512,4.829 5.018,9.632 6.475,14.858 -0.483,-0.268 -1.059,-0.474 -1.767,-0.583 -3.474,-0.539 -7.728,0.971 -11.007,1.898 -4.244,1.2 -8.394,2.726 -12.605,4.034 -36.064,11.199 -73.517,6.089 -110.041,0.168 z m 118.538,-0.147 c 1.088,3.241 1.952,6.396 2.298,9.78 -1.797,0.714 -3.606,1.406 -5.365,2.166 -0.192,-3.368 -0.742,-7.625 -2.652,-10.48 1.89,-0.642 3.783,-1.289 5.684,-1.922 -0.027,0.133 -0.022,0.285 0.035,0.456 z m 1.695,-0.467 c -0.084,-0.2 -0.217,-0.344 -0.372,-0.441 1.501,-0.49 3.014,-0.959 4.538,-1.38 -0.017,0.103 -0.019,0.213 0.008,0.334 0.358,1.59 1.101,3.097 1.522,4.683 0.383,1.442 0.667,2.927 0.833,4.414 -1.468,0.768 -2.998,1.442 -4.55,2.078 -0.125,-3.307 -0.697,-6.633 -1.979,-9.688 z m 5.604,-2.09 c -0.023,-0.034 -0.054,-0.054 -0.08,-0.083 0.862,-0.219 1.73,-0.414 2.601,-0.593 0.978,2.592 1.85,5.134 2.387,7.864 -0.036,0.028 -0.072,0.059 -0.108,0.087 -0.859,0.654 -1.765,1.238 -2.7,1.777 0.002,-3.099 -0.402,-6.546 -2.1,-9.052 z m 4.319,-1.021 c 1.971,-0.375 2.2,-0.59 3.684,1.3 1.341,1.707 1.473,1.596 0.443,3.242 -0.644,1.03 -1.512,1.945 -2.441,2.762 -0.278,-2.487 -0.79,-4.969 -1.686,-7.304 z m -24.821,22.49 c -0.364,-4.702 -1.431,-9.571 -3.756,-13.563 -0.085,-0.146 -0.2,-0.237 -0.323,-0.305 1.184,-0.305 2.357,-0.638 3.525,-0.983 0.522,1.615 1.229,3.181 1.727,4.807 0.591,1.927 0.987,3.892 1.45,5.851 0.15,0.634 1.181,0.508 1.147,-0.155 -0.181,-3.553 -0.894,-7.75 -2.514,-11.05 1.52,-0.473 3.031,-0.972 4.54,-1.479 0.465,1.526 1.295,2.965 1.781,4.494 0.621,1.953 1.026,3.961 1.263,5.995 -3.352,1.551 -6.453,3.452 -8.84,6.388 z m 42.877,-3.619 c -6.904,2.393 -13.777,4.884 -20.764,7.027 -3.483,1.069 -6.993,2.059 -10.54,2.893 -1.897,0.446 -3.969,1.038 -5.929,0.886 -2.486,-0.193 -5.664,-2.762 -4.417,-5.348 7.203,-9.263 21.637,-8.31 28.825,-17.727 1.074,-1.407 1.833,-3.237 1.878,-4.886 0.384,-0.101 0.71,-0.392 0.677,-0.86 -0.395,-5.563 -2.402,-10.531 -4.907,-15.46 -0.267,-0.526 -0.539,-1.05 -0.811,-1.574 2.929,0.633 6.103,-0.704 8.965,-1.403 3.603,-0.881 7.201,-1.787 10.801,-2.68 7.701,-1.911 15.378,-4.106 23.126,-5.813 8.276,-1.823 9.976,11.197 11.52,16.807 1.84,6.686 3.087,13.412 4.024,20.257 -1.621,-1.022 -3.753,-1.422 -5.691,-1.362 -12.467,0.386 -25.111,5.206 -36.757,9.243 z m 30.035,-5.855 c 0.713,-0.122 1.427,-0.237 2.142,-0.342 0.629,-0.093 1.271,-0.197 1.919,-0.289 0.168,0.844 0.484,1.678 0.72,2.489 0.398,1.372 0.801,2.74 1.235,4.101 0.007,0.022 0.021,0.035 0.03,0.056 -1.713,0.295 -3.528,0.381 -5.214,0.566 0.125,-2.083 -0.029,-4.687 -0.832,-6.581 z m 5.847,-0.827 c 0.913,-0.064 1.823,-0.058 2.71,0.099 l 1.154,0.144 c 3.049,1.199 3.538,2.545 1.464,4.041 -1.476,1.775 -0.891,1.188 -2.378,1.805 -0.488,0.202 -1.004,0.358 -1.532,0.491 -0.001,-0.046 0.008,-0.088 -0.002,-0.138 -0.284,-1.402 -0.597,-2.794 -0.916,-4.188 -0.17,-0.74 -0.289,-1.516 -0.5,-2.254 z m -6.216,7.565 c -1.526,0.231 -3.271,0.545 -4.985,1.052 -0.064,-1.033 -0.42,-2.074 -0.656,-3.067 -0.265,-1.122 -0.456,-2.292 -1.002,-3.294 1.78,-0.415 3.569,-0.792 5.364,-1.129 0.19,0.936 0.546,1.851 0.751,2.785 0.264,1.207 0.396,2.429 0.528,3.653 z m -11.526,-4.093 c 1.086,-0.292 2.175,-0.57 3.266,-0.839 0.018,1.165 0.448,2.295 0.788,3.421 0.304,1.007 0.521,2.119 1.014,3.06 -1.242,0.466 -2.427,1.052 -3.44,1.808 0.03,-2.68 -0.397,-5.444 -1.628,-7.45 z m 20.733,12.624 c -3.293,1.474 -6.627,3.015 -10.233,3.506 -3.707,0.505 -13.055,-2.08 -7.004,-6.581 4.686,-3.486 11.247,-2.949 16.713,-4.161 3.064,-0.68 6.982,-1.991 6.697,-5.815 -0.025,-0.331 -0.082,-0.638 -0.153,-0.937 0.151,-0.181 0.24,-0.43 0.217,-0.757 -0.465,-6.449 -1.639,-12.817 -3.2,-19.086 0.23,0.03 0.479,-0.002 0.734,-0.128 4.762,-2.349 9.906,-3.23 11.813,2.849 1.014,3.231 1.329,6.865 1.947,10.187 1.205,6.473 2.259,13.058 3.842,19.465 -6.101,-4.513 -14.948,-1.418 -21.373,1.458 z m 16.64,4.146 c -0.255,-1.795 -0.504,-3.703 -1.018,-5.416 1.858,0.343 3.595,1.194 5.166,2.763 -1.082,0.933 -2.575,1.784 -4.148,2.653 z m -7.289,5.321 c -0.637,-3.261 -1.425,-6.508 -2.198,-9.727 0.727,-0.235 1.445,-0.441 2.157,-0.617 0.27,1.057 0.758,2.087 0.992,3.16 0.31,1.419 0.39,2.859 0.4,4.307 0.005,0.819 1.139,0.766 1.236,0 0.288,-2.266 0.273,-5.594 -0.857,-7.832 0.885,-0.143 1.753,-0.217 2.602,-0.209 0.161,1.064 0.52,2.114 0.791,3.147 0.279,1.06 0.562,2.12 0.847,3.178 -2.365,1.318 -4.71,2.736 -5.97,4.593 z m 27.432,3.107 c -6.217,1.859 -13.849,4.454 -20.401,3.888 -2.647,-0.229 -6.483,-1.382 -4.76,-5.39 0.847,-1.97 3.159,-3.047 4.956,-3.936 2.628,-1.301 5.074,-2.335 6.948,-4.67 0.409,-0.51 0.475,-1.063 0.182,-1.588 0,-0.02 0.008,-0.035 0.006,-0.055 -0.715,-7.086 -1.839,-14.384 -3.254,-21.539 7.297,0.061 15.322,-3.303 21.819,-6.193 6.863,-3.053 13.256,-6.971 19.145,-11.606 -0.591,9.074 -4.54,17.4 -12.343,22.613 -0.697,0.466 -0.92,1.746 0,2.154 5.335,2.368 10.827,4.317 16.515,5.653 2.912,0.683 5.973,1.481 8.928,1.894 -11.576,8.203 -24.092,14.694 -37.741,18.775 z"
   id="path38" />
	
</g></g></g></svg>